<svg viewBox="0 0 24 24" xmlns="http://www.w3.org/2000/svg" fill-rule="evenodd" clip-rule="evenodd" stroke-linejoin="round" stroke-miterlimit="1.414"><path d="M6 11.9c-.93-.19-1.815-.644-2.536-1.364-1.95-1.952-1.95-5.12 0-7.072 1.952-1.95 5.12-1.95 7.072 0 .72.72 1.174 1.607 1.363 2.536H15V5c0-.552.448-1 1-1h4c.552 0 1 .448 1 1v4c0 .552-.448 1-1 1h-4c-.552 0-1-.448-1-1V8h-3.1c-.127.617-.37 1.215-.728 1.758l2.192 2.192.707-.707c.39-.39 1.025-.39 1.415 0l2.83 2.828c.39.39.39 1.025 0 1.415l-2.83 2.83c-.39.39-1.024.39-1.414 0l-2.827-2.83c-.39-.39-.39-1.024 0-1.414l.707-.706-2.192-2.192c-.543.36-1.14.6-1.758.727V15h1c.552 0 1 .448 1 1v4c0 .552-.448 1-1 1H5c-.552 0-1-.448-1-1v-4c0-.552.448-1 1-1h1v-3.1zM8 19v-2H6v2h2zm8.192-4.222l-1.414-1.414-1.414 1.414 1.414 1.414 1.414-1.414zm-7.07-9.9c1.17 1.17 1.17 3.073 0 4.243-1.17 1.172-3.073 1.172-4.243 0-1.172-1.17-1.172-3.07 0-4.24 1.17-1.172 3.07-1.172 4.24 0zM19 6h-2v2h2V6z" fill="#FFF"/></svg>