<svg xmlns="http://www.w3.org/2000/svg" width="16" height="16" viewBox="0 0 16 16"><path d="M5.683 11.282l.645-.903-.707-.708-.902.645c-.168-.094-.347-.168-.535-.222L4 9H3l-.183 1.095c-.188.053-.368.128-.535.222l-.903-.645-.708.707.645.902c-.094.168-.168.347-.222.535L0 12v1l1.095.183c.053.188.128.368.222.535l-.645.903.707.708.902-.645c.168.094.347.168.535.222L3 16h1l.183-1.095c.188-.053.368-.128.535-.222l.903.645.708-.707-.645-.902c.094-.168.168-.347.222-.535L7 13v-1l-1.095-.182c-.053-.188-.128-.368-.222-.535zM3.5 13.5c-.552 0-1-.448-1-1s.448-1 1-1 1 .448 1 1-.448 1-1 1zM16 6V5l-1.053-.19c-.02-.127-.044-.25-.074-.373l.9-.58-.384-.924-1.047.226c-.066-.11-.136-.214-.21-.316l.608-.88-.706-.707-.88.61c-.102-.075-.207-.146-.315-.212L13.064.61 12.14.225l-.58.9c-.12-.03-.245-.055-.37-.075L10.997 0h-1l-.19 1.053c-.127.02-.25.045-.373.075l-.58-.9L7.93.61l.227 1.045c-.108.066-.213.136-.315.21l-.88-.608-.707.707.61.88c-.075.102-.146.207-.212.315l-1.046-.227-.383.924.9.58c-.03.122-.055.246-.075.372L4.995 5v1l1.053.19c.018.127.043.25.073.373l-.9.58.384.924 1.046-.226c.066.11.136.214.21.316l-.608.88.707.707.88-.61c.102.075.207.146.315.212L7.93 10.39l.925.384.58-.9c.122.03.246.055.372.075L9.997 11h1l.192-1.053c.125-.02.25-.045.37-.075l.58.9.925-.384-.226-1.045c.107-.066.212-.136.314-.21l.88.608.707-.707-.608-.88c.074-.102.145-.207.21-.315l1.047.227.382-.924-.9-.58c.03-.122.055-.246.075-.372L16 6zm-5.5 1.675c-1.2 0-2.175-.974-2.175-2.175S9.3 3.325 10.5 3.325s2.175.974 2.175 2.175c0 1.2-.974 2.175-2.175 2.175z" fill="#D3DBE3"/></svg>