<svg xmlns="http://www.w3.org/2000/svg" viewBox="0 0 1600 600" height="600" width="1600"><g fill-rule="evenodd" clip-rule="evenodd" fill="#27AE60"><path d="M1048.5 248.2c-15.1 5.3-17.6 50.5-65.7 37.3l-28.1-48.7c4.7 4.2 19.4 12.5 22.3 7.2 4.5-8.4-14.1-32.1-10.9-38.1 3.7-6.9 24.6 12.8 28.5 5 4-8.1-17.4-28.1-12.9-35.5 3.7-6.1 23 14 26 6.8 4.6-10.9-37.7-69.7-64-54.9-14 7.9-20.4 29.1-20.7 54.7l-8.7-15c-5.4-9.4-18.1-12.9-27.5-7.5l-7.7 4.4s-14.2-14.5-18.4-12.1c-4.3 2.5 1.3 22 1.3 22l-8.5 4.9s-28.5-29-36.7-24.2c-8.7 5 2.6 43.9 2.6 43.9l-8.5 4.9s-14.2-14.5-18.4-12.1c-4.3 2.5 1.3 22 1.3 22l-9.4 5.4c-9.4 5.4-12.5 18-7.1 27.4l8.5 14.8c-22.2-12.4-43.8-17.3-57.5-9.2-25.9 15.4 3.6 81.5 15.4 83 7.7 1 0-25.8 7.1-25.9 8.7-.2 15.4 28.2 24.3 28.8 8.7.6 2.1-27.5 10-27.2 6.8.2 18.1 28.2 27.6 28.5 5.9.2 5.7-15.6 5.2-22.5L876 416.5c5.4 9.4 17.6 12.5 27.2 7l4.9 8.5c.1.1.1.2.2.3 2.6 4.5 8.3 5.7 12.9 3 .1-.1.2-.1.3-.2l16.7-9.6c.1-.1.2-.1.3-.2 4.4-2.6 6-8 3.5-12.5l-.2-.3-5.3-9.1 33.8-19.5 5.3 9.1c.1.1.1.2.2.3 2.6 4.5 8.9 5.3 13.5 2.6.1-.1.2-.1.3-.2l16.7-9.6c.1-.1.2-.1.3-.2 4.4-2.6 6.3-8.2 3.7-12.6l-.2-.3-5.3-9.1h-.1c9.4-5.4 13.3-17.1 7.9-26.5l-.5-.9c46.2-26.4 51.5-93.7 36.4-88.3zM873 202.3c9.4-5.4 29.1 3.2 36.6 16.1 7.4 12.8 5.8 27.6-3.6 33.1-9.4 5.4-23.1-.6-30.5-13.4-7.4-12.8-11.9-30.3-2.5-35.8zm12 52.2c1.9-1.1 5.2 1.1 7.3 4.9 2.2 3.8 2.4 7.7.5 8.8-1.9 1.1-5.2-1.1-7.3-4.9-2.2-3.8-2.4-7.7-.5-8.8zm-15.4 8.9c1.9-1.1 5.2 1.1 7.3 4.8 2.2 3.8 2.4 7.7.5 8.8-1.9 1.1-5.2-1.1-7.3-4.9-2.1-3.7-2.3-7.6-.5-8.7zm-40.9-35.5c9.4-5.4 22.3 7.2 29.7 20 7.4 12.8 5.8 27.6-3.6 33.1-9.4 5.4-23.1-.6-30.5-13.4-7.4-12.8-5-34.3 4.4-39.7zm109.5 18.2c-1.6 3.5-3.9 7-6.9 10.6 1.5 2.6 9.5 17.2 6.4 20-3 2.7-15.5-4.6-19.4-7-15.1 12.8-35.5 24.6-54.2 31.2.1 4.4.2 19.2-3.7 20.4-4 1.3-13-13.7-14.2-15.7-3.2.5-6.3.8-9.2.8-1.1 0-2.1 0-3.1-.1-1.1-.1-1.9-1-1.8-2.1.1-1.1 1-1.9 2.1-1.8 29.2 2.2 88.3-31.9 100.3-57.9.5-1 1.6-1.4 2.6-1 1.2.4 1.6 1.6 1.1 2.6zM848.4 269.9c7.1-4.1 9.5-13.1 5.4-20.2s-13.1-9.5-20.2-5.4-9.5 13.1-5.4 20.2 13.2 9.5 20.2 5.4zm-9.5-23.4c.5-1.8 3-2.8 5.6-2.1 2.6.7 4.3 2.8 3.8 4.6-.5 1.9-3 2.8-5.6 2.1-2.6-.7-4.3-2.8-3.8-4.6zM899.6 240.4c7.1-4.1 9.5-13.1 5.4-20.2s-13.1-9.5-20.2-5.4-9.5 13.1-5.4 20.2 13.1 9.5 20.2 5.4zm-9.6-23.5c.5-1.8 3-2.8 5.6-2.1 2.6.7 4.3 2.8 3.8 4.6-.5 1.9-3 2.8-5.6 2.1-2.6-.6-4.3-2.7-3.8-4.6z"/></g><g fill-rule="evenodd" clip-rule="evenodd" fill="#3498DB"><path d="M1276.5 151c-10.8 3.8-12.7 36.2-47 26.7l-20.1-34.8c3 3.2 13.7 9.1 15.8 5.2 3.2-6-10.2-23-7.9-27.2 2.6-5 17.6 9.2 20.4 3.6 2.8-5.8-12.4-20.1-9.2-25.4 2.6-4.4 16.4 10 18.6 4.9 3.3-7.8-26.8-50-45.7-39.4-10 5.6-14.7 20.9-14.6 39.1l-6.2-10.8c-3.9-6.7-13.2-8.9-19.9-5l-5.5 3.2s-10.2-10.4-13.1-8.7c-3.1 1.8.9 15.7.9 15.7l-6.1 3.5s-20.4-20.8-26.3-17.4c-6.2 3.6 1.9 31.5 1.9 31.5l-6.1 3.5s-10.2-10.4-13.2-8.7c-3.1 1.8.9 15.7.9 15.7l-6.7 3.9c-6.7 3.9-8.6 12.5-4.7 19.2l6.1 10.6c-16.5-8.6-31.6-12.3-41.4-6.4-18.6 11 2.4 58.4 10.9 59.5 5.5.7-.1-18.4 5-18.5 6.2-.1 11 20.2 17.4 20.7 6.2.4 1.5-19.7 7.1-19.5 4.9.2 13.2 20.1 20 20.3 4.3.1 4.4-11.4 3.9-16.3l41.5 71.8c3.9 6.7 12.2 9.2 19.2 5.2l3.5 6.1c0 .1.1.2.1.2 1.9 3.3 5.7 4 9 2.1.1 0 .2-.1.2-.1l12-6.9c.1 0 .2-.1.2-.1 3.2-1.8 4.6-5.8 2.8-8.9l-.1-.2-3.7-6.4 24.2-14 3.7 6.4c0 .1.1.2.1.2 1.9 3.3 6 3.8 9.3 1.9.1 0 .2-.1.2-.1l12-6.9c.1 0 .2-.1.2-.1 3.2-1.8 4.3-5.6 2.5-8.7l-.1-.2-3.7-6.4.2-.1c6.7-3.9 9.8-12.6 5.9-19.3l-.4-.6c33-19.2 36.8-67.4 26-63.6zm-126-32.6c6.7-3.9 20.9 2.3 26.2 11.5 5.3 9.2 4.1 19.8-2.6 23.7-6.7 3.9-16.5-.4-21.8-9.6-5.4-9.2-8.6-21.7-1.8-25.6zm8.5 37.4c1.4-.8 3.7.8 5.3 3.5 1.6 2.7 1.7 5.5.4 6.3-1.4.8-3.7-.8-5.3-3.5-1.5-2.7-1.7-5.5-.4-6.3zm-10.9 6.3c1.4-.8 3.7.8 5.3 3.5 1.6 2.7 1.7 5.5.4 6.3-1.4.8-3.7-.8-5.3-3.5-1.6-2.7-1.8-5.5-.4-6.3zm-29.4-25.4c6.7-3.9 16 5.1 21.3 14.3 5.3 9.2 4.1 19.8-2.6 23.7-6.7 3.9-16.5-.4-21.8-9.6-5.3-9.1-3.6-24.5 3.1-28.4zm78.5 13c-1.1 2.5-2.8 5-4.9 7.6 1.1 1.9 6.8 12.3 4.6 14.3-2.1 1.9-11.1-3.3-13.9-5-10.8 9.2-25.4 17.6-38.8 22.3.1 3.2.1 13.7-2.6 14.6-2.9.9-9.3-9.8-10.2-11.3-2.3.4-4.5.6-6.6.6-.8 0-1.5 0-2.2-.1-.8-.1-1.4-.7-1.3-1.5.1-.8.7-1.4 1.5-1.3 20.9 1.6 63.2-22.8 71.9-41.5.3-.7 1.2-1 1.9-.7.6.5.9 1.3.6 2zM1132.9 166.8c5.1-2.9 6.8-9.4 3.9-14.4-2.9-5.1-9.4-6.8-14.4-3.9-5.1 2.9-6.8 9.4-3.9 14.4 2.8 5.1 9.3 6.8 14.4 3.9zM1126 150c.4-1.3 2.2-2 4-1.5 1.9.5 3.1 2 2.7 3.3-.4 1.3-2.2 2-4 1.5-1.8-.5-3-1.9-2.7-3.3zM1169.5 145.7c5.1-2.9 6.8-9.4 3.9-14.4-2.9-5.1-9.4-6.8-14.4-3.9-5.1 2.9-6.8 9.4-3.9 14.4 2.9 5.1 9.3 6.8 14.4 3.9zm-6.9-16.8c.4-1.3 2.2-2 4-1.5 1.9.5 3.1 2 2.7 3.3-.4 1.3-2.2 2-4 1.5-1.8-.5-3-2-2.7-3.3z"/></g><g fill-rule="evenodd" clip-rule="evenodd" fill="#F39C12"><path d="M788.9 451c-10.8 3.8-12.7 36.2-47 26.7l-20.1-34.8c3 3.2 13.6 9.1 15.6 5.3 3.2-6-10.3-22.9-8-27.2 2.6-5 17.6 9.2 20.3 3.6 2.8-5.8-12.5-20.1-9.2-25.4 2.6-4.4 16.4 10 18.6 4.9 3.3-7.8-26.7-50.1-45.5-39.5-10 5.6-14.6 20.8-14.5 39l-6.2-10.8c-3.9-6.7-13.6-8.9-20.4-5L667 391s-10.2-10.4-13.1-8.7c-3.1 1.8.9 15.7.9 15.7l-6.1 3.5s-20.4-20.8-26.3-17.4c-6.2 3.6 1.9 31.5 1.9 31.5l-6.1 3.5s-10.2-10.4-13.2-8.7c-3.1 1.8.9 15.7.9 15.7l-6.7 3.9c-6.7 3.9-8.2 12.5-4.3 19.2l6.1 10.6c-16.5-8.6-31.8-12.2-41.6-6.3-18.6 11 2.4 58.5 10.8 59.5 5.5.7-.1-18.4 5-18.5 6.2-.1 10.9 20.3 17.4 20.7 6.2.4 1.5-19.7 7.1-19.5 4.9.2 13.3 20 20.2 20.2 4.3.1 4.6-11.5 4.1-16.4l41.5 71.8c3.9 6.7 12.2 9.2 19.2 5.2l3.5 6.1c0 .1.1.2.1.2 1.9 3.3 5.3 4 8.6 2.1.1 0 .2-.1.2-.1l12-6.9c.1 0 .2-.1.2-.1 3.2-1.8 5.1-5.7 3.2-8.9l-.1-.2-3.8-6.6 24.2-14 3.8 6.6c0 .1.1.2.1.2 1.9 3.3 5.6 3.8 8.9 1.9.1 0 .2-.1.2-.1l12-6.9c.1 0 .2-.1.2-.1 3.2-1.8 4.7-5.6 2.9-8.7l-.1-.2-3.8-6.6-.1.1c6.7-3.9 10.2-12.5 6.3-19.3l-.4-.6c33.2-19.1 36.9-67.2 26.1-63.4zm-126.3-32.5c6.7-3.9 20.9 2.3 26.2 11.5 5.3 9.2 4.1 19.8-2.6 23.7-6.7 3.9-16.5-.4-21.8-9.6-5.3-9.2-8.5-21.7-1.8-25.6zm8.6 37.4c1.4-.8 3.7.8 5.3 3.5 1.6 2.7 1.7 5.5.4 6.3-1.4.8-3.7-.8-5.3-3.5-1.6-2.7-1.8-5.5-.4-6.3zm-11 6.3c1.4-.8 3.7.8 5.3 3.5 1.6 2.7 1.7 5.5.4 6.3-1.4.8-3.7-.8-5.3-3.5-1.6-2.7-1.8-5.5-.4-6.3zm-29.3-25.4c6.7-3.9 16 5.1 21.3 14.3 5.3 9.2 4.1 19.8-2.6 23.7-6.7 3.9-16.5-.4-21.8-9.6-5.4-9.1-3.7-24.5 3.1-28.4zm78.4 13c-1.1 2.5-2.8 5-4.9 7.6 1.1 1.9 6.8 12.3 4.6 14.3-2.1 1.9-11.1-3.3-13.9-5-10.8 9.2-25.4 17.6-38.8 22.3.1 3.2.1 13.7-2.6 14.6-2.9.9-9.3-9.8-10.2-11.3-2.3.4-4.5.6-6.6.6-.8 0-1.5 0-2.2-.1-.8-.1-1.4-.7-1.3-1.5.1-.8.7-1.4 1.5-1.3 20.9 1.6 63.2-22.8 71.9-41.5.3-.7 1.2-1 1.9-.7.6.5.9 1.3.6 2zM645 466.9c5.1-2.9 6.8-9.4 3.9-14.4-2.9-5.1-9.4-6.8-14.4-3.9-5.1 2.9-6.8 9.4-3.9 14.4 2.9 5.1 9.3 6.9 14.4 3.9zm-6.9-16.8c.4-1.3 2.2-2 4-1.5 1.9.5 3.1 2 2.7 3.3-.4 1.3-2.2 2-4 1.5-1.8-.5-3-1.9-2.7-3.3zM681.6 445.8c5.1-2.9 6.8-9.4 3.9-14.4-2.9-5.1-9.4-6.8-14.4-3.9-5.1 2.9-6.8 9.4-3.9 14.4 2.9 5.1 9.4 6.8 14.4 3.9zm-6.8-16.8c.4-1.3 2.2-2 4-1.5 1.9.5 3.1 2 2.7 3.3-.4 1.3-2.2 2-4 1.5-1.9-.5-3.1-2-2.7-3.3z"/></g><g fill-rule="evenodd" clip-rule="evenodd" fill="#E74C3C"><path d="M317.2 164c-10.8 3.8-12.7 36.2-47 26.7l-20.1-34.8c3 3.2 13.6 9.1 15.7 5.3 3.2-6-10.2-22.9-8-27.2 2.6-5 17.6 9.2 20.3 3.6 2.8-5.8-12.5-20.1-9.2-25.4 2.6-4.4 16.4 10 18.6 4.9 3.3-7.8-26.7-50-45.6-39.5-10 5.6-14.6 20.9-14.5 39l-6.2-10.8c-3.9-6.7-13.6-9.1-20.3-5.3l-5.5 3.2s-10.2-10.4-13.1-8.7c-3.1 1.8.9 15.7.9 15.7l-6.1 3.5s-20.4-20.8-26.3-17.4c-6.2 3.6 1.9 31.5 1.9 31.5l-6.1 3.5s-10.2-10.4-13.2-8.7c-3.1 1.8.9 15.7.9 15.7l-6.7 3.9c-6.7 3.9-8.2 12.7-4.3 19.5l6.1 10.6c-16.5-8.6-31.7-12.2-41.5-6.4-18.6 11 2.4 58.5 10.8 59.5 5.5.7-.1-18.4 5-18.5 6.2-.1 11 20.2 17.4 20.7 6.2.4 1.5-19.7 7.1-19.5 4.9.2 13.3 20 20.1 20.2 4.3.1 4.5-11.5 4-16.3l41.5 71.8c3.9 6.7 12.2 9.2 19.2 5.2l3.5 6.1c0 .1.1.2.1.2 1.9 3.3 5.3 3.8 8.6 1.9.1 0 .2-.1.2-.1l12-6.9c.1 0 .2-.1.2-.1 3.2-1.8 5.1-5.5 3.2-8.7l-.1-.2-3.9-6.8 24.2-14 3.9 6.8c0 .1.1.2.1.2 1.9 3.3 5.6 3.6 8.9 1.7.1 0 .2-.1.2-.1l12-6.9c.1 0 .2-.1.2-.1 3.2-1.8 4.7-5.3 2.9-8.5l-.1-.2-3.9-6.8c6.7-3.9 10.2-12.3 6.3-19l-.4-.6c33.1-19 36.9-67.2 26.1-63.4zM191 131.5c6.7-3.9 20.9 2.3 26.2 11.5 5.3 9.2 4.1 19.8-2.6 23.7-6.7 3.9-16.5-.4-21.8-9.6-5.4-9.2-8.6-21.7-1.8-25.6zm8.5 37.4c1.4-.8 3.7.8 5.3 3.5 1.6 2.7 1.7 5.5.4 6.3-1.4.8-3.7-.8-5.3-3.5-1.5-2.7-1.7-5.5-.4-6.3zm-10.9 6.3c1.4-.8 3.7.8 5.3 3.5 1.6 2.7 1.7 5.5.4 6.3-1.4.8-3.7-.8-5.3-3.5-1.6-2.7-1.8-5.5-.4-6.3zm-29.4-25.4c6.7-3.9 16 5.1 21.3 14.3 5.3 9.2 4.1 19.8-2.6 23.7-6.7 3.9-16.5-.4-21.8-9.6-5.3-9.1-3.6-24.5 3.1-28.4zm78.5 13c-1.1 2.5-2.8 5-4.9 7.6 1.1 1.9 6.8 12.3 4.6 14.3-2.1 1.9-11.1-3.3-13.9-5-10.8 9.2-25.4 17.6-38.8 22.3.1 3.2.1 13.7-2.6 14.6-2.9.9-9.3-9.8-10.2-11.3-2.3.4-4.5.6-6.6.6-.8 0-1.5 0-2.2-.1-.8-.1-1.4-.7-1.3-1.5.1-.8.7-1.4 1.5-1.3 20.9 1.6 63.2-22.8 71.9-41.5.3-.7 1.2-1 1.9-.7.6.5.9 1.3.6 2zM173.4 179.9c5.1-2.9 6.8-9.4 3.9-14.4-2.9-5.1-9.4-6.8-14.4-3.9-5.1 2.9-6.8 9.4-3.9 14.4 2.8 5.1 9.3 6.8 14.4 3.9zm-6.9-16.8c.4-1.3 2.2-2 4-1.5 1.9.5 3.1 2 2.7 3.3-.4 1.3-2.2 2-4 1.5-1.8-.5-3-1.9-2.7-3.3zM210 158.8c5.1-2.9 6.8-9.4 3.9-14.4-2.9-5.1-9.4-6.8-14.4-3.9-5.1 2.9-6.8 9.4-3.9 14.4 2.9 5.1 9.3 6.8 14.4 3.9zm-6.9-16.8c.4-1.3 2.2-2 4-1.5 1.9.5 3.1 2 2.7 3.3-.4 1.3-2.2 2-4 1.5-1.8-.5-3-2-2.7-3.3z"/></g><g fill-rule="evenodd" clip-rule="evenodd" fill="#8E44AD"><path d="M1587 391.9c-10.8 3.8-12.7 36.2-47 26.7l-20.1-34.8c3 3.2 13.5 9.2 15.6 5.4 3.2-6-10.3-22.9-8-27.2 2.6-5 17.5 9.3 20.3 3.6 2.8-5.8-12.5-20.1-9.3-25.4 2.6-4.4 16.4 10 18.6 4.9 3.3-7.8-26.6-50.1-45.4-39.5-10 5.6-14.5 20.8-14.4 39l-6.2-10.8c-3.9-6.7-13.8-8.8-20.5-4.9l-5.5 3.2s-10.2-10.4-13.1-8.7c-3.1 1.8.9 15.7.9 15.7l-6.1 3.5s-20.4-20.8-26.3-17.4c-6.2 3.6 1.9 31.5 1.9 31.5l-6.1 3.5s-10.2-10.4-13.2-8.7c-3.1 1.8.9 15.7.9 15.7l-6.7 3.9c-6.7 3.9-8 12.4-4.1 19.1l6.1 10.6c-16.5-8.6-31.8-12.1-41.7-6.3-18.6 11 2.3 58.5 10.8 59.5 5.5.7-.1-18.4 5-18.5 6.2-.1 10.9 20.3 17.4 20.7 6.2.4 1.5-19.7 7.1-19.5 4.9.2 13.4 19.9 20.2 20.1 4.3.1 4.6-11.5 4.1-16.4l41.5 71.8c3.9 6.7 12.2 9.2 19.2 5.2l3.5 6.1c0 .1.1.2.1.2 1.9 3.3 5.1 4.1 8.4 2.2.1 0 .2-.1.2-.1l12-6.9c.1 0 .2-.1.2-.1 3.2-1.8 5.2-5.8 3.4-9l-.1-.2-3.8-6.6 24.2-14 3.8 6.6c0 .1.1.2.1.2 1.9 3.3 5.5 3.9 8.8 2 .1 0 .2-.1.2-.1l12-6.9c.1 0 .2-.1.2-.1 3.2-1.8 4.9-5.6 3-8.8l-.1-.2-3.8-6.6-.2.1c6.7-3.9 10.4-12.6 6.5-19.4l-.4-.6c32.9-18.9 36.7-67.1 25.9-63.3zm-126.5-32.4c6.7-3.9 20.9 2.3 26.2 11.5 5.3 9.2 4.1 19.8-2.6 23.7-6.7 3.9-16.5-.4-21.8-9.6-5.3-9.1-8.5-21.7-1.8-25.6zm8.6 37.4c1.4-.8 3.7.8 5.3 3.5 1.6 2.7 1.7 5.5.4 6.3-1.4.8-3.7-.8-5.3-3.5-1.6-2.7-1.8-5.5-.4-6.3zm-11 6.4c1.4-.8 3.7.8 5.3 3.5 1.6 2.7 1.7 5.5.4 6.3-1.4.8-3.7-.8-5.3-3.5-1.6-2.7-1.7-5.6-.4-6.3zm-29.3-25.4c6.7-3.9 16 5.1 21.3 14.3 5.3 9.2 4.1 19.8-2.6 23.7-6.7 3.9-16.5-.4-21.8-9.6-5.3-9.2-3.6-24.5 3.1-28.4zm78.4 13c-1.1 2.5-2.8 5-4.9 7.6 1.1 1.9 6.8 12.3 4.6 14.3-2.1 1.9-11.1-3.3-13.9-5-10.8 9.2-25.4 17.6-38.8 22.3.1 3.2.1 13.7-2.6 14.6-2.9.9-9.3-9.8-10.2-11.3-2.3.4-4.5.6-6.6.6-.8 0-1.5 0-2.2-.1-.8-.1-1.4-.7-1.3-1.5.1-.8.7-1.4 1.5-1.3 20.9 1.6 63.2-22.8 71.9-41.5.3-.7 1.2-1 1.9-.7.6.4 1 1.3.6 2zM1442.9 408c5.1-2.9 6.8-9.4 3.9-14.4-2.9-5.1-9.4-6.8-14.4-3.9-5.1 2.9-6.8 9.4-3.9 14.4 2.9 5.1 9.4 6.8 14.4 3.9zm-6.8-16.8c.4-1.3 2.2-2 4-1.5 1.9.5 3.1 2 2.7 3.3-.4 1.3-2.2 2-4 1.5-1.9-.5-3.1-2-2.7-3.3zM1479.5 386.8c5.1-2.9 6.8-9.4 3.9-14.4-2.9-5.1-9.4-6.8-14.4-3.9-5.1 2.9-6.8 9.4-3.9 14.4 2.9 5.1 9.4 6.8 14.4 3.9zm-6.8-16.8c.4-1.3 2.2-2 4-1.5 1.9.5 3.1 2 2.7 3.3-.4 1.3-2.2 2-4 1.5-1.8-.5-3.1-1.9-2.7-3.3z"/></g><g fill-rule="evenodd" clip-rule="evenodd" fill="#16A085"><path d="M1177.7 463.7c-8.9 3.1-10.1 29.6-38.7 22l-16.6-28.7c2.6 2.6 11.6 7.3 13.3 4.1 2.7-4.9-8.2-19-6.3-22.5 2.2-4.1 14.6 7.5 16.8 2.9 2.3-4.8-10.2-16.6-7.6-20.9 2.2-3.6 13.6 8.2 15.3 4 2.7-6.5-22.4-41-37.9-32.3-8.3 4.6-11.9 17.1-12.4 32.4l-5.1-8.9c-3.2-5.5-10.1-7.5-15.6-4.2l-4.5 2.6s-8.4-8.6-10.8-7.2c-2.6 1.5.8 13 .8 13l-5 2.9s-16.8-17.1-21.7-14.3c-5.1 3 1.6 25.9 1.6 25.9l-5 2.9s-8.4-8.6-10.8-7.2c-2.6 1.5.8 13 .8 13l-5.5 3.2c-5.5 3.2-7.8 10.4-4.6 15.9l5 8.7c-13.4-7.2-25.7-10.3-33.8-5.5-15.3 9.1 2.2 48 9.1 48.9 4.6.6 0-15.2 4.2-15.3 5.1-.1 9.1 16.6 14.4 17 5.1.3 1.3-16.2 5.9-16 4 .1 10.6 16.7 16.2 16.8 3.5.1 3.9-9.6 2.9-13.2l34.1 59.1c3.2 5.5 10.1 7.6 16.2 4.1l2.9 5c0 .1.1.1.1.2 1.5 2.7 5.1 3.7 7.8 2.1.1 0 .1-.1.2-.1l9.9-5.7c.1 0 .1-.1.2-.1 2.6-1.5 3.3-5.1 1.8-7.7l-.1-.2-3-5.2 19.9-11.5 3 5.2c0 .1.1.1.1.2 1.5 2.7 5.5 3.5 8.2 1.9.1 0 .1-.1.2-.1l9.9-5.7c.1 0 .1-.1.2-.1 2.6-1.5 3-4.9 1.4-7.5l-.1-.2-3-5.2.5-.3c5.5-3.2 7.4-10.1 4.2-15.6l-.3-.5c27.7-16 30.2-55.3 21.3-52.1zm-103.2-27.3c5.5-3.2 17.2 1.9 21.6 9.5 4.4 7.6 3.4 16.3-2.1 19.5-5.6 3.2-13.6-.3-18-7.9-4.4-7.6-7-17.9-1.5-21.1zm7.1 30.8c1.1-.6 3.1.6 4.3 2.9 1.3 2.2 1.4 4.5.3 5.2-1.1.6-3.1-.6-4.3-2.9-1.3-2.2-1.5-4.6-.3-5.2zm-9.1 5.2c1.1-.6 3.1.6 4.3 2.9 1.3 2.2 1.4 4.5.3 5.2-1.1.6-3.1-.6-4.3-2.9-1.3-2.2-1.4-4.5-.3-5.2zm-24.1-20.9c5.5-3.2 13.2 4.2 17.5 11.8 4.4 7.6 3.4 16.3-2.1 19.5-5.5 3.2-13.6-.3-18-7.9-4.4-7.5-3-20.2 2.6-23.4zm64.6 10.7c-.9 2-2.3 4.1-4.1 6.3.9 1.5 5.6 10.1 3.8 11.8-1.8 1.6-9.1-2.7-11.4-4.1-8.9 7.6-20.9 14.5-32 18.4.1 2.6.1 11.3-2.2 12-2.4.8-7.7-8.1-8.4-9.3-1.9.3-3.7.5-5.4.5-.6 0-1.2 0-1.8-.1-.6 0-1.1-.6-1.1-1.2s.6-1.1 1.2-1.1c17.2 1.3 52.1-18.8 59.2-34.2.3-.6 1-.8 1.5-.6.7.4.9 1 .7 1.6zM1060 476.3c4.2-2.4 5.6-7.7 3.2-11.9-2.4-4.2-7.7-5.6-11.9-3.2-4.2 2.4-5.6 7.7-3.2 11.9 2.4 4.2 7.7 5.6 11.9 3.2zm-5.6-13.8c.3-1.1 1.8-1.6 3.3-1.2 1.5.4 2.5 1.6 2.2 2.7-.3 1.1-1.8 1.7-3.3 1.2-1.5-.4-2.5-1.6-2.2-2.7zM1090.2 458.9c4.2-2.4 5.6-7.7 3.2-11.9-2.4-4.2-7.7-5.6-11.9-3.2-4.2 2.4-5.6 7.7-3.2 11.9 2.4 4.2 7.7 5.6 11.9 3.2zm-5.7-13.8c.3-1.1 1.8-1.6 3.3-1.2 1.5.4 2.5 1.6 2.2 2.7-.3 1.1-1.8 1.7-3.3 1.2-1.5-.4-2.5-1.6-2.2-2.7z"/></g><g fill-rule="evenodd" clip-rule="evenodd" fill="#F1C40F"><path d="M541.1 105.5c-8.9 3.1-10.1 29.6-38.7 22l-16.6-28.7c2.6 2.6 11.3 7.5 13 4.3 2.7-4.9-8.4-18.9-6.5-22.4 2.2-4.1 14.5 7.6 16.8 3 2.3-4.8-10.3-16.5-7.6-20.9 2.2-3.6 13.5 8.3 15.3 4 2.7-6.5-22.1-41.2-37.6-32.4-8.3 4.6-11.6 16.9-12.1 32.2l-5.1-8.9c-3.2-5.5-10.9-7.3-16.4-4.1l-4.5 2.6s-8.4-8.6-10.8-7.2c-2.6 1.5.8 13 .8 13l-5 2.9s-16.8-17.1-21.7-14.3c-5.1 3 1.6 25.9 1.6 25.9l-5 2.9s-8.4-8.6-10.8-7.2c-2.6 1.5.8 13 .8 13l-5.5 3.2c-5.5 3.2-7 10.3-3.8 15.8l5 8.7c-13.4-7.2-26-10.1-34.1-5.3-15.3 9.1 2 48.1 8.9 49 4.6.6-.1-15.2 4.1-15.3 5.1-.1 9 16.7 14.3 17 5.1.3 1.2-16.2 5.9-16 4 .1 10.9 16.5 16.5 16.7 3.5.1 4.2-9.7 3.2-13.4l34.1 59.1c3.2 5.5 10.1 7.6 16.2 4.1l2.9 5c0 .1.1.1.1.2 1.5 2.7 4.4 3.8 7.1 2.3.1 0 .1-.1.2-.1l9.9-5.7c.1 0 .1-.1.2-.1 2.6-1.5 4.1-5.2 2.6-7.8l-.1-.2-3.1-5.4 19.9-11.5 3.1 5.4c0 .1.1.1.1.2 1.5 2.7 4.8 3.6 7.5 2 .1 0 .1-.1.2-.1l9.9-5.7c.1 0 .1-.1.2-.1 2.6-1.5 3.7-5 2.2-7.6l-.1-.2-3.1-5.4-.1.1c5.5-3.2 8.1-10.2 4.9-15.7l-.3-.5c27.5-16.2 30-55.5 21.1-52.4zM437.4 78.6c5.5-3.2 17.2 1.9 21.6 9.5 4.4 7.6 3.4 16.3-2.1 19.5-5.5 3.2-13.6-.3-18-7.9-4.4-7.6-7.1-17.9-1.5-21.1zm7 30.8c1.1-.6 3.1.6 4.3 2.9 1.3 2.2 1.4 4.5.3 5.2-1.1.6-3.1-.6-4.3-2.9-1.3-2.2-1.4-4.6-.3-5.2zm-9 5.2c1.1-.6 3.1.6 4.3 2.9 1.3 2.2 1.4 4.5.3 5.2-1.1.6-3.1-.6-4.3-2.9-1.3-2.2-1.4-4.5-.3-5.2zm-24.2-20.9c5.5-3.2 13.2 4.2 17.5 11.8 4.4 7.6 3.4 16.3-2.1 19.5-5.5 3.2-13.6-.3-18-7.9-4.3-7.5-2.9-20.2 2.6-23.4zm64.6 10.7c-.9 2-2.3 4.1-4.1 6.3.9 1.5 5.6 10.1 3.8 11.8-1.8 1.6-9.1-2.7-11.4-4.1-8.9 7.6-20.9 14.5-32 18.4.1 2.6.1 11.3-2.2 12-2.4.8-7.7-8.1-8.4-9.3-1.9.3-3.7.5-5.4.5-.6 0-1.2 0-1.8-.1-.6 0-1.1-.6-1.1-1.2s.6-1.1 1.2-1.1c17.2 1.3 52.1-18.8 59.2-34.2.3-.6 1-.8 1.5-.6.7.4 1 1 .7 1.6zM422.9 118.5c4.2-2.4 5.6-7.7 3.2-11.9-2.4-4.2-7.7-5.6-11.9-3.2-4.2 2.4-5.6 7.7-3.2 11.9 2.4 4.2 7.7 5.6 11.9 3.2zm-5.7-13.8c.3-1.1 1.8-1.6 3.3-1.2 1.5.4 2.5 1.6 2.2 2.7-.3 1.1-1.8 1.7-3.3 1.2-1.5-.4-2.5-1.6-2.2-2.7zM453 101.1c4.2-2.4 5.6-7.7 3.2-11.9-2.4-4.2-7.7-5.6-11.9-3.2-4.2 2.4-5.6 7.7-3.2 11.9 2.4 4.2 7.8 5.6 11.9 3.2zm-5.6-13.9c.3-1.1 1.8-1.6 3.3-1.2 1.5.4 2.5 1.6 2.2 2.7-.3 1.1-1.8 1.7-3.3 1.2-1.5-.3-2.5-1.6-2.2-2.7z"/></g><g fill-rule="evenodd" clip-rule="evenodd" fill="#D35400"><path d="M517.4 400c-8.9 3.1-10.1 29.6-38.7 22l-16.6-28.7c2.6 2.6 11.3 7.4 13 4.3 2.7-4.9-8.4-18.9-6.5-22.4 2.2-4.1 14.5 7.6 16.8 3 2.3-4.8-10.2-16.5-7.6-20.9 2.2-3.6 13.5 8.3 15.3 4 2.7-6.5-22.1-41.1-37.6-32.4-8.3 4.6-11.7 17-12.1 32.2l-5.1-8.9c-3.2-5.5-10.7-7.3-16.3-4.1l-4.5 2.6s-8.4-8.6-10.8-7.2c-2.6 1.5.8 13 .8 13l-5 2.9s-16.8-17.1-21.7-14.3c-5.1 3 1.6 25.9 1.6 25.9l-5 2.9s-8.4-8.6-10.8-7.2c-2.6 1.5.8 13 .8 13l-5.5 3.2c-5.5 3.2-7.2 10.2-4 15.7l5 8.7c-13.4-7.2-26-10.1-34.1-5.3-15.3 9.1 2 48.1 9 49 4.6.6 0-15.2 4.2-15.3 5.1-.1 9 16.7 14.3 17 5.1.3 1.2-16.2 5.9-16 4 .1 10.9 16.5 16.5 16.7 3.5.1 4.2-9.7 3.2-13.4l34.1 59.1c3.2 5.5 10.1 7.6 16.2 4.1l2.9 5c0 .1.1.1.1.2 1.5 2.7 4.5 3.9 7.2 2.3.1 0 .1-.1.2-.1l9.9-5.7c.1 0 .1-.1.2-.1 2.6-1.5 3.9-5.3 2.4-7.9l-.1-.2-3.1-5.3 19.9-11.5 3.1 5.3c0 .1.1.1.1.2 1.5 2.7 4.9 3.7 7.6 2.1.1 0 .1-.1.2-.1l9.9-5.7c.1 0 .1-.1.2-.1 2.6-1.5 3.6-5.1 2.1-7.7l-.1-.2-3.1-5.3h-.1c5.5-3.2 8-10.2 4.8-15.8l-.3-.5c27.6-15.9 30.1-55.3 21.2-52.1zm-103.7-26.9c5.5-3.2 17.2 1.9 21.6 9.5 4.4 7.6 3.4 16.3-2.1 19.5-5.5 3.2-13.6-.3-18-7.9-4.4-7.6-7-17.9-1.5-21.1zm7.1 30.7c1.1-.6 3.1.6 4.3 2.9 1.3 2.2 1.4 4.5.3 5.2-1.1.6-3.1-.6-4.3-2.9-1.3-2.2-1.4-4.5-.3-5.2zm-9.1 5.3c1.1-.6 3.1.6 4.3 2.9 1.3 2.2 1.4 4.5.3 5.2-1.1.6-3.1-.6-4.3-2.9-1.2-2.3-1.4-4.6-.3-5.2zm-24.1-21c5.5-3.2 13.2 4.2 17.5 11.8 4.4 7.6 3.4 16.3-2.1 19.5-5.5 3.2-13.6-.3-18-7.9-4.3-7.5-2.9-20.1 2.6-23.4zm64.6 10.8c-.9 2-2.3 4.1-4.1 6.3.9 1.5 5.6 10.1 3.8 11.8-1.8 1.6-9.1-2.7-11.4-4.1-8.9 7.6-20.9 14.5-32 18.4.1 2.6.1 11.3-2.2 12-2.4.8-7.7-8.1-8.4-9.3-1.9.3-3.7.5-5.4.5-.6 0-1.2 0-1.8-.1-.6 0-1.1-.6-1.1-1.2s.6-1.1 1.2-1.1c17.2 1.3 52.1-18.8 59.2-34.2.3-.6 1-.8 1.5-.6.7.3 1 1 .7 1.6zM399.2 412.9c4.2-2.4 5.6-7.7 3.2-11.9-2.4-4.2-7.7-5.6-11.9-3.2-4.2 2.4-5.6 7.7-3.2 11.9 2.4 4.2 7.8 5.6 11.9 3.2zm-5.6-13.8c.3-1.1 1.8-1.6 3.3-1.2 1.5.4 2.5 1.6 2.2 2.7-.3 1.1-1.8 1.7-3.3 1.2-1.5-.4-2.5-1.6-2.2-2.7zM429.4 395.5c4.2-2.4 5.6-7.7 3.2-11.9-2.4-4.2-7.7-5.6-11.9-3.2-4.2 2.4-5.6 7.7-3.2 11.9 2.4 4.2 7.7 5.6 11.9 3.2zm-5.6-13.8c.3-1.1 1.8-1.6 3.3-1.2 1.5.4 2.5 1.6 2.2 2.7-.3 1.1-1.8 1.7-3.3 1.2-1.5-.4-2.5-1.6-2.2-2.7z"/></g><g fill-rule="evenodd" clip-rule="evenodd" fill="#9B59B6"><path d="M1490.2 151.4c-8.9 3.1-10.1 29.6-38.7 22l-16.6-28.7c2.6 2.6 11.3 7.4 13 4.3 2.7-4.9-8.4-18.9-6.5-22.4 2.2-4.1 14.5 7.6 16.8 3 2.3-4.8-10.3-16.5-7.6-20.9 2.2-3.6 13.5 8.3 15.3 4 2.7-6.5-22.1-41.2-37.6-32.4-8.3 4.6-11.6 16.9-12.1 32.2l-5.1-8.9c-3.2-5.5-10.8-7.4-16.4-4.2l-4.5 2.6s-8.4-8.6-10.8-7.2c-2.6 1.5.8 13 .8 13l-5 2.9s-16.8-17.1-21.7-14.3c-5.1 3 1.6 25.9 1.6 25.9l-5 2.9s-8.4-8.6-10.8-7.2c-2.6 1.5.8 13 .8 13l-5.5 3.2c-5.5 3.2-7 10.3-3.8 15.9l5 8.7c-13.4-7.2-26-10.1-34.1-5.3-15.3 9.1 2 48.1 9 49 4.6.6 0-15.2 4.2-15.3 5.1-.1 9 16.7 14.3 17 5.1.3 1.2-16.2 5.9-16 4 .1 10.9 16.5 16.5 16.7 3.5.1 4.2-9.7 3.2-13.4l34.1 59.1c3.2 5.5 10.1 7.6 16.2 4.1l2.9 5c0 .1.1.1.1.2 1.5 2.7 4.4 3.8 7.1 2.2.1 0 .1-.1.2-.1l9.9-5.7c.1 0 .1-.1.2-.1 2.6-1.5 4.1-5.2 2.6-7.8l-.1-.2-3.2-5.5 19.9-11.5 3.2 5.5c0 .1.1.1.1.2 1.5 2.7 4.8 3.5 7.5 2 .1 0 .1-.1.2-.1l9.9-5.7c.1 0 .1-.1.2-.1 2.6-1.5 3.7-4.9 2.2-7.6l-.1-.2-3.2-5.5-.1.1c5.5-3.2 8.1-10.1 4.9-15.7l-.3-.5c27.4-16.1 29.9-55.4 21-52.2zm-103.7-26.9c5.5-3.2 17.2 1.9 21.6 9.5 4.4 7.6 3.4 16.3-2.1 19.5-5.5 3.2-13.6-.3-18-7.9-4.4-7.6-7-17.9-1.5-21.1zm7.1 30.7c1.1-.6 3.1.6 4.3 2.9 1.3 2.2 1.4 4.5.3 5.2-1.1.6-3.1-.6-4.3-2.9-1.3-2.2-1.5-4.5-.3-5.2zm-9.1 5.3c1.1-.6 3.1.6 4.3 2.9 1.3 2.2 1.4 4.5.3 5.2-1.1.6-3.1-.6-4.3-2.9-1.3-2.3-1.4-4.6-.3-5.2zm-24.1-20.9c5.5-3.2 13.2 4.2 17.5 11.8 4.4 7.6 3.4 16.3-2.1 19.5-5.5 3.2-13.6-.3-18-7.9-4.4-7.6-3-20.2 2.6-23.4zm64.6 10.7c-.9 2-2.3 4.1-4.1 6.3.9 1.5 5.6 10.1 3.8 11.8-1.8 1.6-9.1-2.7-11.4-4.1-8.9 7.6-20.9 14.5-32 18.4.1 2.6.1 11.3-2.2 12-2.4.8-7.7-8.1-8.4-9.3-1.9.3-3.7.5-5.4.5-.6 0-1.2 0-1.8-.1-.6 0-1.1-.6-1.1-1.2s.6-1.1 1.2-1.1c17.2 1.3 52.1-18.8 59.2-34.2.3-.6 1-.8 1.5-.6.7.3.9 1 .7 1.6zM1372 164.3c4.2-2.4 5.6-7.7 3.2-11.9-2.4-4.2-7.7-5.6-11.9-3.2s-5.6 7.7-3.2 11.9c2.4 4.2 7.7 5.6 11.9 3.2zm-5.6-13.8c.3-1.1 1.8-1.6 3.3-1.2 1.5.4 2.5 1.6 2.2 2.7-.3 1.1-1.8 1.7-3.3 1.2-1.5-.4-2.5-1.6-2.2-2.7zM1402.2 146.9c4.2-2.4 5.6-7.7 3.2-11.9-2.4-4.2-7.7-5.6-11.9-3.2-4.2 2.4-5.6 7.7-3.2 11.9 2.4 4.2 7.7 5.6 11.9 3.2zm-5.7-13.8c.3-1.1 1.8-1.6 3.3-1.2 1.5.4 2.5 1.6 2.2 2.7-.3 1.1-1.8 1.7-3.3 1.2-1.5-.4-2.5-1.6-2.2-2.7z"/></g><g fill-rule="evenodd" clip-rule="evenodd" fill="#1ABC9C"><path d="M831.4 61.5c-6.6 2.3-7.1 21.8-28.7 16.3l-12.3-21.3c2.2 1.8 8.4 5.5 9.7 3.2 2-3.7-6.2-14-4.8-16.7 1.6-3 10.8 5.6 12.4 2.2 1.7-3.5-7.6-12.3-5.6-15.5 1.6-2.7 10 6.1 11.4 3 2-4.8-16.4-30.5-27.9-24.1-6.1 3.4-8.6 12.5-9 23.9l-3.8-6.6c-2.4-4.1-7.9-5.4-12.1-3l-3.4 1.9s-6.2-6.3-8-5.3c-1.9 1.1.6 9.6.6 9.6l-3.7 2.2s-12.5-12.7-16.1-10.6c-3.8 2.2 1.2 19.2 1.2 19.2l-3.7 2.2s-6.2-6.3-8-5.3c-1.9 1.1.6 9.6.6 9.6l-4.1 2.4c-4.1 2.4-5.3 7.5-3 11.7l3.7 6.5c-10-5.3-19.3-7.5-25.3-3.9-11.3 6.7 1.5 35.7 6.7 36.3 3.4.4 0-11.3 3.1-11.3 3.8-.1 6.7 12.4 10.6 12.6 3.8.3.9-12 4.3-11.9 3 .1 8.1 12.3 12.2 12.4 2.6.1 2.9-7.1 2.4-9.9l25.3 43.9c2.4 4.1 7.8 5.5 12.1 3l2.2 3.7.1.1c1.1 2 3.3 2.9 5.3 1.8.1 0 .1-.1.1-.1l7.3-4.2.1-.1c1.9-1.1 2.9-4 1.8-5.9l-.1-.1-2.3-4 14.7-8.5 2.3 4c0 .1.1.1.1.1 1.1 2 3.7 2.7 5.7 1.6l.1-.1 7.3-4.2.1-.1c1.9-1.1 2.6-3.7 1.4-5.7l-.1-.1-2.3-4c4.1-2.4 6-7.5 3.6-11.6l-.2-.4c21-12.1 22.6-41.2 16-38.9zm-76.9-19.9c4.1-2.4 12.8 1.4 16 7 3.2 5.6 2.5 12.1-1.6 14.5-4.1 2.4-10.1-.2-13.3-5.9-3.3-5.6-5.2-13.2-1.1-15.6zm5.2 22.8c.8-.5 2.3.5 3.2 2.1.9 1.6 1.1 3.4.2 3.8-.8.5-2.3-.5-3.2-2.1-.9-1.6-1-3.3-.2-3.8zm-6.7 3.9c.8-.5 2.3.5 3.2 2.1.9 1.6 1.1 3.4.2 3.8-.8.5-2.3-.5-3.2-2.1-.9-1.6-1-3.3-.2-3.8zm-17.9-15.5c4.1-2.4 9.8 3.1 13 8.8 3.2 5.6 2.5 12.1-1.6 14.5-4.1 2.4-10.1-.2-13.3-5.9-3.2-5.7-2.2-15 1.9-17.4zm47.9 7.9c-.7 1.5-1.7 3.1-3 4.6.6 1.1 4.1 7.5 2.8 8.7-1.3 1.2-6.8-2-8.5-3.1-6.6 5.6-15.5 10.8-23.7 13.6.1 1.9.1 8.4-1.6 8.9-1.8.6-5.7-6-6.2-6.9-1.4.2-2.8.3-4 .3h-1.3c-.5 0-.8-.4-.8-.9s.4-.8.9-.8c12.8 1 38.6-14 43.9-25.3.2-.4.7-.6 1.1-.4.4.4.6.9.4 1.3zM743.7 71.2c3.1-1.8 4.1-5.7 2.4-8.8-1.8-3.1-5.7-4.1-8.8-2.4-3.1 1.8-4.1 5.7-2.4 8.8 1.8 3.1 5.8 4.1 8.8 2.4zm-4.1-10.3c.2-.8 1.3-1.2 2.5-.9 1.1.3 1.9 1.2 1.7 2-.2.8-1.3 1.2-2.5.9-1.2-.3-2-1.2-1.7-2zM766.1 58.2c3.1-1.8 4.1-5.7 2.4-8.8-1.8-3.1-5.7-4.1-8.8-2.4-3.1 1.8-4.1 5.7-2.4 8.8 1.8 3.2 5.7 4.2 8.8 2.4zM761.9 48c.2-.8 1.3-1.2 2.5-.9 1.1.3 1.9 1.2 1.7 2-.2.8-1.3 1.2-2.5.9-1.1-.3-1.9-1.2-1.7-2z"/></g><g fill-rule="evenodd" clip-rule="evenodd" fill="#2980B9"><path d="M1313.6 352.9c-6.6 2.3-7.1 21.8-28.7 16.3l-12.3-21.3c2.2 1.8 8.4 5.5 9.7 3.2 2-3.7-6.2-14-4.8-16.7 1.6-3 10.8 5.6 12.4 2.2 1.7-3.5-7.6-12.3-5.6-15.5 1.6-2.7 10 6.1 11.4 3 2-4.8-16.4-30.5-27.9-24-6.1 3.4-8.6 12.6-9 23.9l-3.8-6.6c-2.4-4.1-8-5.6-12.2-3.2l-3.4 1.9s-6.2-6.3-8-5.3c-1.9 1.1.6 9.6.6 9.6l-3.7 2.2s-12.5-12.7-16.1-10.6c-3.8 2.2 1.2 19.2 1.2 19.2l-3.7 2.2s-6.2-6.3-8-5.3c-1.9 1.1.6 9.6.6 9.6l-4.1 2.4c-4.1 2.4-5.2 7.8-2.9 11.9l3.7 6.5c-10-5.3-19.3-7.5-25.3-3.9-11.3 6.7 1.5 35.7 6.7 36.3 3.4.4 0-11.3 3.1-11.3 3.8-.1 6.7 12.4 10.6 12.6 3.8.3.9-12 4.3-11.9 3 .1 8 12.3 12.2 12.4 2.6.1 2.9-7.1 2.4-9.9l25.3 43.9c2.4 4.1 7.8 5.5 12.1 3l2.2 3.7.1.1c1.1 2 3.2 2.7 5.2 1.6.1 0 .1-.1.1-.1l7.3-4.2.1-.1c1.9-1.1 3-3.7 1.9-5.7l-.1-.1-2.4-4.2 14.7-8.5 2.4 4.2c0 .1.1.1.1.1 1.1 2 3.6 2.5 5.6 1.3l.1-.1 7.3-4.2.1-.1c1.9-1.1 2.7-3.5 1.5-5.4l-.1-.1-2.4-4.2h.1c4.1-2.4 6.1-7.3 3.7-11.4l-.2-.4c20.9-12.3 22.5-41.4 15.9-39zm-76.9-20c4.1-2.4 12.8 1.4 16 7 3.2 5.6 2.5 12.1-1.6 14.5-4.1 2.4-10.1-.2-13.3-5.9-3.3-5.6-5.2-13.2-1.1-15.6zm5.2 22.8c.8-.5 2.3.5 3.2 2.1.9 1.6 1.1 3.4.2 3.8-.8.5-2.3-.5-3.2-2.1-.9-1.6-1-3.3-.2-3.8zm-6.7 3.9c.8-.5 2.3.5 3.2 2.1.9 1.6 1.1 3.4.2 3.8-.8.5-2.3-.5-3.2-2.1-.9-1.6-1-3.3-.2-3.8zm-17.9-15.5c4.1-2.4 9.8 3.1 13 8.8 3.2 5.6 2.5 12.1-1.6 14.5-4.1 2.4-10.1-.2-13.3-5.9-3.2-5.7-2.2-15 1.9-17.4zm47.9 7.9c-.7 1.5-1.7 3.1-3 4.6.6 1.1 4.1 7.5 2.8 8.7-1.3 1.2-6.8-2-8.5-3.1-6.6 5.6-15.5 10.8-23.7 13.6.1 1.9.1 8.4-1.6 8.9-1.8.6-5.7-6-6.2-6.9-1.4.2-2.8.3-4 .3h-1.3c-.5 0-.8-.4-.8-.9s.4-.8.9-.8c12.8 1 38.6-14 43.9-25.3.2-.4.7-.6 1.1-.4.4.4.6.9.4 1.3zM1225.9 362.5c3.1-1.8 4.1-5.7 2.4-8.8-1.8-3.1-5.7-4.1-8.8-2.4-3.1 1.8-4.1 5.7-2.4 8.8 1.8 3.1 5.8 4.1 8.8 2.4zm-4.1-10.3c.2-.8 1.3-1.2 2.5-.9 1.1.3 1.9 1.2 1.7 2-.2.8-1.3 1.2-2.5.9-1.2-.3-2-1.2-1.7-2zM1248.3 349.5c3.1-1.8 4.1-5.7 2.4-8.8-1.8-3.1-5.7-4.1-8.8-2.4-3.1 1.8-4.1 5.7-2.4 8.8 1.8 3.2 5.7 4.2 8.8 2.4zm-4.2-10.2c.2-.8 1.3-1.2 2.5-.9 1.1.3 1.9 1.2 1.7 2-.2.8-1.3 1.2-2.5.9-1.1-.3-1.9-1.2-1.7-2z"/></g><g fill-rule="evenodd" clip-rule="evenodd" fill="#C0392B"><path d="M285.8 411.5c-6.6 2.3-7.1 21.8-28.7 16.3l-12.3-21.3c2.2 1.8 8.4 5.6 9.6 3.2 2-3.7-6.2-14-4.8-16.6 1.6-3 10.7 5.6 12.4 2.2 1.7-3.5-7.6-12.3-5.6-15.5 1.6-2.7 10 6.1 11.4 3 2-4.8-16.4-30.6-27.9-24.1-6.1 3.4-8.5 12.5-8.9 23.9l-3.8-6.6c-2.4-4.1-8.3-5.6-12.4-3.3l-3.4 1.9s-6.2-6.3-8-5.3c-1.9 1.1.6 9.6.6 9.6l-3.7 2.2s-12.5-12.7-16.1-10.6c-3.8 2.2 1.2 19.2 1.2 19.2l-3.7 2.2s-6.2-6.3-8-5.3c-1.9 1.1.6 9.6.6 9.6l-4.1 2.4c-4.1 2.4-5 7.8-2.6 11.9l3.7 6.5c-10-5.3-19.4-7.5-25.4-3.9-11.3 6.7 1.5 35.7 6.6 36.3 3.4.4 0-11.2 3.1-11.3 3.8-.1 6.7 12.4 10.6 12.6 3.8.3.9-12 4.3-11.9 3 .1 8.1 12.2 12.3 12.3 2.6.1 2.9-7.1 2.4-10l25.3 43.9c2.4 4.1 7.8 5.5 12.1 3l2.2 3.7.1.1c1.1 2 3 2.7 5 1.5.1 0 .1-.1.1-.1l7.3-4.2.1-.1c1.9-1.1 3.3-3.7 2.1-5.6l-.1-.1-2.5-4.4 14.7-8.5 2.5 4.4c0 .1.1.1.1.1 1.1 2 3.3 2.5 5.4 1.3l.1-.1 7.3-4.2.1-.1c1.9-1.1 2.9-3.5 1.8-5.4l-.1-.1-2.5-4.4h-.1c4.1-2.4 6.3-7.3 3.9-11.4l-.2-.4c20.9-11.8 22.6-40.9 15.9-38.5zm-77-19.9c4.1-2.4 12.8 1.4 16 7 3.2 5.6 2.5 12.1-1.6 14.5-4.1 2.4-10.1-.2-13.3-5.9-3.3-5.6-5.2-13.3-1.1-15.6zm5.2 22.8c.8-.5 2.3.5 3.2 2.1.9 1.6 1.1 3.4.2 3.8-.8.5-2.3-.5-3.2-2.1-.9-1.6-1-3.3-.2-3.8zm-6.7 3.9c.8-.5 2.3.5 3.2 2.1.9 1.6 1.1 3.4.2 3.8-.8.5-2.3-.5-3.2-2.1-.9-1.6-1-3.4-.2-3.8zm-17.9-15.5c4.1-2.4 9.8 3.1 13 8.8 3.2 5.6 2.5 12.1-1.6 14.5-4.1 2.4-10.1-.2-13.3-5.9-3.2-5.7-2.2-15.1 1.9-17.4zm47.9 7.9c-.7 1.5-1.7 3.1-3 4.6.6 1.1 4.1 7.5 2.8 8.7-1.3 1.2-6.8-2-8.5-3.1-6.6 5.6-15.5 10.8-23.7 13.6.1 1.9.1 8.4-1.6 8.9-1.8.6-5.7-6-6.2-6.9-1.4.2-2.8.3-4 .3h-1.3c-.5 0-.8-.4-.8-.9s.4-.8.9-.8c12.8 1 38.6-14 43.9-25.3.2-.4.7-.6 1.1-.4.4.4.6.9.4 1.3zM198 421.1c3.1-1.8 4.1-5.7 2.4-8.8-1.8-3.1-5.7-4.1-8.8-2.4-3.1 1.8-4.1 5.7-2.4 8.8 1.8 3.2 5.7 4.2 8.8 2.4zm-4.2-10.2c.2-.8 1.3-1.2 2.5-.9 1.1.3 1.9 1.2 1.7 2-.2.8-1.3 1.2-2.5.9-1.1-.3-1.9-1.2-1.7-2zM220.4 408.2c3.1-1.8 4.1-5.7 2.4-8.8-1.8-3.1-5.7-4.1-8.8-2.4-3.1 1.8-4.1 5.7-2.4 8.8 1.8 3.1 5.7 4.2 8.8 2.4zm-4.2-10.2c.2-.8 1.3-1.2 2.5-.9 1.1.3 1.9 1.2 1.7 2-.2.8-1.3 1.2-2.5.9-1.1-.3-1.9-1.2-1.7-2z"/></g><g fill-rule="evenodd" clip-rule="evenodd" fill="#E67E22"><path d="M597.9 282.9c-4.9 1.7-5.1 16.1-21.3 12.1l-9.1-15.8c1.8 1.2 6.4 4 7.3 2.3 1.5-2.7-4.5-10.4-3.5-12.4 1.2-2.2 8 4.2 9.2 1.6 1.3-2.6-5.6-9.1-4.2-11.5 1.2-2 7.4 4.5 8.4 2.2 1.5-3.5-12.3-22.5-20.8-17.8-4.5 2.6-6 9.1-6.8 17.8l-2.8-4.9c-1.8-3.1-5.6-4.1-8.7-2.3l-2.5 1.4s-4.6-4.7-6-3.9c-1.4.8.4 7.1.4 7.1l-2.8 1.6s-9.2-9.4-11.9-7.9c-2.8 1.6.9 14.2.9 14.2l-2.8 1.6s-4.6-4.7-6-3.9c-1.4.8.4 7.1.4 7.1l-3 1.8c-3.1 1.8-4.1 5.6-2.3 8.7l2.8 4.8c-7-4.1-14.2-5.6-18.7-3-8.4 5 1.1 26.4 5 26.9 2.5.3 0-8.4 2.3-8.4 2.8-.1 5 9.2 7.9 9.4 2.8.2.7-8.9 3.2-8.8 2.2.1 5.9 9.1 9 9.2 1.9.1 1.8-5.1 1.7-7.3l18.8 32.5c1.8 3.1 5.8 4 9.3 2l1.6 2.8s0 .1.1.1c.9 1.5 2.3 2.3 3.8 1.4 0 0 .1 0 .1-.1l5.4-3.1s.1 0 .1-.1c1.4-.8 1.8-2.8 1-4.2l-.1-.1-1.9-3.2 11.3-6.5 1.9 3.2s0 .1.1.1c.9 1.5 2.7 2 4.2 1.2 0 0 .1 0 .1-.1l5.4-3.1s.1 0 .1-.1c1.4-.8 2.2-3 1.4-4.4l-.1-.1-1.9-3.2-.3.2c3.1-1.8 4.4-5.2 2.6-8.2l-.2-.3c15.8-9 16.8-30.4 11.9-28.6zm-56.8-15c3.1-1.8 9.4 1.1 11.9 5.2 2.4 4.2 1.9 9-1.2 10.7-3.1 1.8-7.5-.2-9.9-4.3-2.4-4.1-3.8-9.8-.8-11.6zm3.9 16.9c.6-.4 1.7.4 2.4 1.6.7 1.2.8 2.5.2 2.8-.6.4-1.7-.4-2.4-1.6-.7-1.1-.8-2.4-.2-2.8zm-5 2.9c.6-.4 1.7.4 2.4 1.6.7 1.2.8 2.5.2 2.8-.6.4-1.7-.4-2.4-1.6-.7-1.2-.8-2.4-.2-2.8zm-13.3-11.5c3-1.8 7.2 2.3 9.6 6.5 2.4 4.2 1.9 9-1.2 10.7-3.1 1.8-7.5-.2-9.9-4.3-2.3-4.2-1.5-11.1 1.5-12.9zm35.6 5.9c-.5 1.1-1.3 2.3-2.2 3.4.5.9 3.1 5.6 2.1 6.5-1 .9-5-1.5-6.3-2.3-4.9 4.2-11.5 8-17.6 10.1 0 1.4.1 6.2-1.2 6.6-1.3.4-4.2-4.4-4.6-5.1-1 .2-2 .3-3 .3h-1c-.4 0-.6-.3-.6-.7 0-.4.3-.6.7-.6 9.5.7 28.6-10.3 32.5-18.8.1-.3.5-.5.8-.3.4.2.5.6.4.9zM533.1 289.8c2.3-1.3 3.1-4.2 1.8-6.5s-4.2-3.1-6.5-1.8-3.1 4.2-1.8 6.5c1.3 2.4 4.3 3.2 6.5 1.8zm-3.1-7.6c.2-.6 1-.9 1.8-.7.8.2 1.4.9 1.2 1.5-.2.6-1 .9-1.8.7-.8-.2-1.3-.9-1.2-1.5zM549.7 280.3c2.3-1.3 3.1-4.2 1.8-6.5s-4.2-3.1-6.5-1.8-3.1 4.2-1.8 6.5 4.2 3.1 6.5 1.8zm-3.1-7.6c.2-.6 1-.9 1.8-.7.8.2 1.4.9 1.2 1.5-.2.6-1 .9-1.8.7-.8-.3-1.3-.9-1.2-1.5z"/></g><g fill-rule="evenodd" clip-rule="evenodd" fill="#2ECC71"><path d="M670.6 157.6c-4.9 1.7-5.1 16.1-21.3 12.1l-9.1-15.8c1.8 1.2 6.5 3.9 7.4 2.2 1.5-2.7-4.5-10.5-3.4-12.4 1.2-2.2 8 4.1 9.3 1.6 1.3-2.6-5.6-9.1-4.1-11.5 1.2-2 7.5 4.5 8.4 2.2 1.5-3.5-12.4-22.5-20.9-17.7-4.5 2.6-6.1 9.2-6.9 17.8l-2.8-4.9c-1.8-3.1-5.4-4.3-8.4-2.5l-2.5 1.4s-4.6-4.7-6-3.9c-1.4.8.4 7.1.4 7.1l-2.8 1.6s-9.2-9.4-11.9-7.9c-2.8 1.6.9 14.2.9 14.2l-2.8 1.6s-4.6-4.7-6-3.9c-1.4.8.4 7.1.4 7.1l-3 1.8c-3.1 1.8-4.3 5.8-2.6 8.9l2.8 4.8c-7-4.1-14.1-5.7-18.6-3-8.4 5 1.2 26.4 5 26.9 2.5.3 0-8.4 2.3-8.4 2.8-.1 5 9.1 7.9 9.3 2.8.2.7-8.9 3.2-8.8 2.2.1 5.8 9.2 8.9 9.3 1.9.1 1.7-5 1.6-7.3l18.8 32.5c1.8 3.1 5.8 4 9.3 2l1.6 2.8s0 .1.1.1c.9 1.5 2.5 2.1 4 1.3 0 0 .1 0 .1-.1l5.4-3.1s.1 0 .1-.1c1.4-.8 1.6-2.6.7-4l-.1-.1-1.9-3.3 11.3-6.5 1.9 3.3s0 .1.1.1c.9 1.5 3 1.9 4.5 1 0 0 .1 0 .1-.1l5.4-3.1s.1 0 .1-.1c1.4-.8 2-2.8 1.1-4.2l-.1-.1-1.9-3.3c3.1-1.8 4.1-5 2.3-8.1l-.2-.3c15.8-8.8 16.8-30.2 11.9-28.5zm-56.5-15c3.1-1.8 9.4 1.1 11.9 5.2 2.4 4.2 1.9 9-1.2 10.7-3.1 1.8-7.5-.2-9.9-4.3-2.4-4.2-3.8-9.9-.8-11.6zm3.9 16.9c.6-.4 1.7.4 2.4 1.6.7 1.2.8 2.5.2 2.8-.6.4-1.7-.4-2.4-1.6-.7-1.2-.8-2.5-.2-2.8zm-5 2.8c.6-.4 1.7.4 2.4 1.6.7 1.2.8 2.5.2 2.8-.6.4-1.7-.4-2.4-1.6-.7-1.1-.8-2.4-.2-2.8zm-13.2-11.4c3-1.8 7.2 2.3 9.6 6.5 2.4 4.2 1.9 9-1.2 10.7-3.1 1.8-7.5-.2-9.9-4.3-2.4-4.2-1.6-11.2 1.5-12.9zm35.5 5.8c-.5 1.1-1.3 2.3-2.2 3.4.5.9 3.1 5.6 2.1 6.5-1 .9-5-1.5-6.3-2.3-4.9 4.2-11.5 8-17.6 10.1 0 1.4.1 6.2-1.2 6.6-1.3.4-4.2-4.4-4.6-5.1-1 .2-2 .3-3 .3h-1c-.4 0-.6-.3-.6-.7 0-.4.3-.6.7-.6 9.5.7 28.6-10.3 32.5-18.8.1-.3.5-.5.8-.3.4.2.5.6.4.9zM606.2 164.5c2.3-1.3 3.1-4.2 1.8-6.5s-4.2-3.1-6.5-1.8-3.1 4.2-1.8 6.5c1.2 2.3 4.2 3.1 6.5 1.8zm-3.1-7.6c.2-.6 1-.9 1.8-.7.8.2 1.4.9 1.2 1.5-.2.6-1 .9-1.8.7-.9-.3-1.4-.9-1.2-1.5zM622.7 154.9c2.3-1.3 3.1-4.2 1.8-6.5s-4.2-3.1-6.5-1.8-3.1 4.2-1.8 6.5 4.2 3.1 6.5 1.8zm-3.1-7.6c.2-.6 1-.9 1.8-.7.8.2 1.4.9 1.2 1.5-.2.6-1 .9-1.8.7-.8-.2-1.3-.9-1.2-1.5z"/></g></svg>