<svg viewBox="0 0 24 24" xmlns="http://www.w3.org/2000/svg" fill-rule="evenodd" clip-rule="evenodd" stroke-linejoin="round" stroke-miterlimit="1.414"><path d="M16 18.928l2.065 1.02C16.382 21.237 14.28 22 12 22c-.143 0-.285-.003-.426-.01l-.68-2.004 1.315-1.99c1.255-.043 2.414-.473 3.36-1.174l.43 2.106zm-8.09-2.54c.867.81 1.975 1.364 3.203 1.547L9.93 19.727l.738 2.185c-2.375-.317-4.488-1.47-6.033-3.15l.937-1.896 2.337-.478zm11.817-2.317l2.185-.738c-.317 2.375-1.47 4.488-3.15 6.033l-1.896-.937-.478-2.337c.81-.867 1.364-1.975 1.547-3.203l1.792 1.184zM6.004 12.21c.043 1.255.473 2.414 1.174 3.36L5.072 16l-1.02 2.065C2.763 16.382 2 14.28 2 12c0-.143.003-.285.01-.426l2.004-.68 1.99 1.315zM19.95 5.934C21.235 7.618 22 9.72 22 12c0 .143-.003.285-.01.426l-2.004.68-1.99-1.315c-.043-1.255-.473-2.414-1.174-3.36L18.928 8l1.02-2.065zM7.133 5.572l.478 2.337c-.81.867-1.364 1.975-1.547 3.203L4.273 9.93l-2.185.738c.317-2.375 1.47-4.488 3.15-6.033l1.896.937zm6.198-3.484c2.375.317 4.488 1.47 6.033 3.15l-.937 1.896-2.337.478c-.867-.81-1.975-1.364-3.203-1.547l1.184-1.792-.738-2.185zM5.935 4.05C7.618 2.765 9.72 2 12 2c.143 0 .285.003.426.01l.68 2.004-1.315 1.99c-1.255.043-2.414.473-3.36 1.174L8 5.072l-2.065-1.02z" fill="#FFF"/></svg>