<svg xmlns="http://www.w3.org/2000/svg" viewBox="0 0 841.9 595.3" enable-background="new 0 0 841.9 595.3"><path fill="#fff" d="M420.9 7.4C257.2 7.4 123.3 141.3 123.3 305c0 132.1 85.6 243.7 202.8 282.8 14.9 1.9 20.5-5.6 20.5-14.9v-50.2c-83.7 18.6-100.5-39.1-100.5-39.1-13-33.5-33.5-42.8-33.5-42.8-27.9-18.6 1.9-18.6 1.9-18.6C244.2 424.1 261 452 261 452c26 44.6 68.8 31.6 87.4 24.2 1.9-18.6 11.2-31.6 18.6-39.1-67-7.4-135.8-33.5-135.8-147 0-31.6 11.2-59.5 29.8-80-3.7-7.4-13-37.2 3.7-78.1 0 0 24.2-7.4 81.9 29.8 24.2-7.4 48.4-9.3 74.4-9.3s50.2 3.7 74.4 9.3c57.7-39.1 81.9-31.6 81.9-31.6 16.7 40.9 5.6 70.7 3.7 78.1 18.6 20.5 29.8 46.5 29.8 80 0 113.5-68.8 139.5-135.8 147 11.2 9.3 20.5 27.9 20.5 55.8V573c0 7.4 5.6 16.7 20.5 14.9 117-39.1 202.6-150.7 202.6-282.8 0-163.7-134-297.7-297.7-297.7z"/></svg>