<svg xmlns="http://www.w3.org/2000/svg" viewBox="0 0 841.9 595.3" enable-background="new 0 0 841.9 595.3"><path fill="#fff" d="M440.7 41.8c-93.9 0-144.7 59.4-144.7 125.8 0 50.5 36.2 107.5 110.9 107.5h18.9s-5.1 12.5-5.2 24.6c0 17.8 6.4 27.8 20 43.2-128.5 7.8-180.1 59.7-180.1 115.3 0 48.8 46.7 96.8 144.9 96.8 116.2 0 176.4-64.5 176.4-127.8 0-44.6-22.2-69.1-78.5-111.3-16.6-12.9-19.8-21.1-19.8-30.7 0-13.8 8.3-22.9 11.3-26.4 5.3-5.6 14.6-12 18-15.1 18.9-16 45.6-39.7 45.6-87.1 0-32.5-13.5-60.4-44.3-86.6h37.6l28.2-28.2H440.7zm-25.9 21.1c17 0 31.3 6 46.3 18.5 16.7 15 43.3 55.4 43.3 105.3 0 53.9-41.9 68.6-64.5 68.6-11.1 0-24.4-3.1-35.6-10.8-25-16.2-49.8-59.4-49.8-110.7-.2-46.2 27.4-70.9 60.3-70.9zm37.1 300.5c7.2 0 12.3.6 12.3.6s16.9 12 28.8 21c27.5 21.7 44.6 38.3 44.6 67.9 0 40.7-37.7 72.6-98.8 72.6-67.1 0-118.3-31.2-118.3-82.2-.1-42.2 35-78.6 131.4-79.9z"/></svg>