<svg viewBox="0 0 24 24" xmlns="http://www.w3.org/2000/svg" fill-rule="evenodd" clip-rule="evenodd" stroke-linejoin="round" stroke-miterlimit="1.414"><path d="M7.83 20c-.413 1.165-1.525 2-2.83 2-1.656 0-3-1.344-3-3 0-1.305.835-2.417 2-2.83v-1.34c-1.165-.413-2-1.525-2-2.83 0-1.305.835-2.417 2-2.83V7.83C2.835 7.416 2 6.304 2 5c0-1.656 1.344-3 3-3 1.305 0 2.417.835 2.83 2h1.34c.413-1.165 1.525-2 2.83-2 1.305 0 2.417.835 2.83 2h1.34c.413-1.165 1.525-2 2.83-2 1.656 0 3 1.344 3 3 0 1.305-.835 2.417-2 2.83v1.34c1.165.413 2 1.525 2 2.83 0 1.305-.835 2.417-2 2.83v1.34c1.165.413 2 1.525 2 2.83 0 1.656-1.344 3-3 3-1.305 0-2.417-.835-2.83-2h-1.34c-.413 1.165-1.525 2-2.83 2-1.305 0-2.417-.835-2.83-2H7.83zM5 18c.552 0 1 .448 1 1s-.448 1-1 1-1-.448-1-1 .448-1 1-1zm7 0c.552 0 1 .448 1 1s-.448 1-1 1-1-.448-1-1 .448-1 1-1zm7 0c.552 0 1 .448 1 1s-.448 1-1 1-1-.448-1-1 .448-1 1-1zm-9.83-5H7.83c-.303.852-.978 1.528-1.83 1.83v1.34c.852.302 1.528.978 1.83 1.83h1.34c.302-.852.978-1.528 1.83-1.83v-1.34c-.852-.302-1.527-.978-1.83-1.83zm7 0h-1.34c-.303.852-.978 1.528-1.83 1.83v1.34c.852.302 1.528.978 1.83 1.83h1.34c.302-.852.978-1.528 1.83-1.83v-1.34c-.852-.302-1.527-.978-1.83-1.83zM5 11c.552 0 1 .448 1 1s-.448 1-1 1-1-.448-1-1 .448-1 1-1zm7 0c.552 0 1 .448 1 1s-.448 1-1 1-1-.448-1-1 .448-1 1-1zm7 0c.552 0 1 .448 1 1s-.448 1-1 1-1-.448-1-1 .448-1 1-1zM9.17 6H7.83C7.526 6.852 6.85 7.528 6 7.83v1.34c.852.302 1.528.978 1.83 1.83h1.34c.302-.852.978-1.528 1.83-1.83V7.83C10.148 7.527 9.473 6.85 9.17 6zm7 0h-1.34c-.303.852-.978 1.528-1.83 1.83v1.34c.852.302 1.528.978 1.83 1.83h1.34c.302-.852.978-1.528 1.83-1.83V7.83c-.852-.302-1.527-.978-1.83-1.83zM5 4c.552 0 1 .448 1 1s-.448 1-1 1-1-.448-1-1 .448-1 1-1zm7 0c.552 0 1 .448 1 1s-.448 1-1 1-1-.448-1-1 .448-1 1-1zm7 0c.552 0 1 .448 1 1s-.448 1-1 1-1-.448-1-1 .448-1 1-1z" fill="#FFF"/></svg>