<?xml version="1.0" encoding="UTF-8" standalone="no"?>
<!-- Created with Inkscape (http://www.inkscape.org/) -->

<svg
   xmlns:dc="http://purl.org/dc/elements/1.1/"
   xmlns:cc="http://creativecommons.org/ns#"
   xmlns:rdf="http://www.w3.org/1999/02/22-rdf-syntax-ns#"
   xmlns:svg="http://www.w3.org/2000/svg"
   xmlns="http://www.w3.org/2000/svg"
   xmlns:sodipodi="http://sodipodi.sourceforge.net/DTD/sodipodi-0.dtd"
   xmlns:inkscape="http://www.inkscape.org/namespaces/inkscape"
   width="800"
   height="400"
   viewBox="0 0 211.66666 105.83334"
   version="1.1"
   id="svg8"
   inkscape:version="0.92.4 (5da689c313, 2019-01-14)"
   sodipodi:docname="join-our-team.svg">
  <defs
     id="defs2" />
  <sodipodi:namedview
     id="base"
     pagecolor="#ffffff"
     bordercolor="#666666"
     borderopacity="1.0"
     inkscape:pageopacity="0"
     inkscape:pageshadow="2"
     inkscape:zoom="1.4"
     inkscape:cx="331.16744"
     inkscape:cy="133.28117"
     inkscape:document-units="mm"
     inkscape:current-layer="layer1"
     showgrid="false"
     units="px"
     inkscape:window-width="1920"
     inkscape:window-height="1001"
     inkscape:window-x="2391"
     inkscape:window-y="-9"
     inkscape:window-maximized="1"
     inkscape:pagecheckerboard="true" />
  <metadata
     id="metadata5">
    <rdf:RDF>
      <cc:Work
         rdf:about="">
        <dc:format>image/svg+xml</dc:format>
        <dc:type
           rdf:resource="http://purl.org/dc/dcmitype/StillImage" />
        <dc:title></dc:title>
      </cc:Work>
    </rdf:RDF>
  </metadata>
  <g
     inkscape:label="Layer 1"
     inkscape:groupmode="layer"
     id="layer1"
     transform="translate(0,-191.16665)">
    <path
       style="fill:none;fill-opacity:0.73134329;stroke:#00001b;stroke-width:1.80260625;stroke-linecap:butt;stroke-linejoin:miter;stroke-miterlimit:4;stroke-dasharray:none;stroke-opacity:1"
       d="m 12.000432,209.25396 6.076785,56.38275 177.569803,4.49215 12.33469,-73.63573 z"
       id="path3721-6"
       inkscape:connector-curvature="0"
       sodipodi:nodetypes="ccccc" />
    <path
       style="fill:#000000;fill-opacity:0.69021738;stroke:none;stroke-width:0.26458332px;stroke-linecap:butt;stroke-linejoin:miter;stroke-opacity:1"
       d="m 7.2811278,214.73469 6.0767852,56.38275 177.569797,4.49215 12.33469,-73.63573 z"
       id="path3721"
       inkscape:connector-curvature="0"
       sodipodi:nodetypes="ccccc" />
    <g
       aria-label="JOIN OUR TEAM"
       transform="matrix(0.26458333,0,0,0.26513754,4.0224738,194.50533)"
       style="font-style:normal;font-weight:normal;font-size:40px;line-height:1.25;font-family:sans-serif;letter-spacing:0px;word-spacing:0px;fill:#ffffff;fill-opacity:1;stroke:none"
       id="flowRoot4528">
      <path
         d="m 143.52148,187.69578 q 0,6.125 -3.75,9.4375 -3.71875,3.3125 -10,3.3125 -1.5,0 -4,-0.28125 -2.5,-0.25 -4.1875,-0.625 v -5.78125 h 0.34375 q 1.28125,0.4375 3.15625,0.90625 1.875,0.46875 3.84375,0.46875 2.875,0 4.5625,-0.65625 1.71875,-0.65625 2.53125,-1.875 0.84375,-1.25 1.0625,-3.0625 0.25,-1.8125 0.25,-4.1875 v -27.15625 h -9.84375 v -4.9375 h 16.03125 z"
         style="font-style:normal;font-variant:normal;font-weight:normal;font-stretch:normal;font-size:64px;font-family:roboto;-inkscape-font-specification:roboto;fill:#ffffff;fill-opacity:1"
         id="path4583"
         inkscape:connector-curvature="0" />
      <path
         d="m 190.27148,158.60203 q 2.84375,3.125 4.34375,7.65625 1.53125,4.53125 1.53125,10.28125 0,5.75 -1.5625,10.3125 -1.53125,4.53125 -4.3125,7.5625 -2.875,3.15625 -6.8125,4.75 -3.90625,1.59375 -8.9375,1.59375 -4.90625,0 -8.9375,-1.625 -4,-1.625 -6.8125,-4.71875 -2.8125,-3.09375 -4.34375,-7.59375 -1.5,-4.5 -1.5,-10.28125 0,-5.6875 1.5,-10.1875 1.5,-4.53125 4.375,-7.75 2.75,-3.0625 6.8125,-4.6875 4.09375,-1.625 8.90625,-1.625 5,0 8.96875,1.65625 4,1.625 6.78125,4.65625 z m -0.5625,17.9375 q 0,-9.0625 -4.0625,-13.96875 -4.0625,-4.9375 -11.09375,-4.9375 -7.09375,0 -11.15625,4.9375 -4.03125,4.90625 -4.03125,13.96875 0,9.15625 4.125,14.03125 4.125,4.84375 11.0625,4.84375 6.9375,0 11.03125,-4.84375 4.125,-4.875 4.125,-14.03125 z"
         style="font-style:normal;font-variant:normal;font-weight:normal;font-stretch:normal;font-size:64px;font-family:roboto;-inkscape-font-specification:roboto;fill:#ffffff;fill-opacity:1"
         id="path4585"
         inkscape:connector-curvature="0" />
      <path
         d="m 222.36523,199.78953 h -18.375 v -4.75 h 6.09375 v -37.03125 h -6.09375 v -4.75 h 18.375 v 4.75 h -6.09375 v 37.03125 h 6.09375 z"
         style="font-style:normal;font-variant:normal;font-weight:normal;font-stretch:normal;font-size:64px;font-family:roboto;-inkscape-font-specification:roboto;fill:#ffffff;fill-opacity:1"
         id="path4587"
         inkscape:connector-curvature="0" />
      <path
         d="m 268.45898,199.78953 h -7.65625 l -22.0625,-41.625 v 41.625 h -5.78125 v -46.53125 h 9.59375 l 20.125,38 v -38 h 5.78125 z"
         style="font-style:normal;font-variant:normal;font-weight:normal;font-stretch:normal;font-size:64px;font-family:roboto;-inkscape-font-specification:roboto;fill:#ffffff;fill-opacity:1"
         id="path4589"
         inkscape:connector-curvature="0" />
      <path
         d="m 338.02148,158.60203 q 2.84375,3.125 4.34375,7.65625 1.53125,4.53125 1.53125,10.28125 0,5.75 -1.5625,10.3125 -1.53125,4.53125 -4.3125,7.5625 -2.875,3.15625 -6.8125,4.75 -3.90625,1.59375 -8.9375,1.59375 -4.90625,0 -8.9375,-1.625 -4,-1.625 -6.8125,-4.71875 -2.8125,-3.09375 -4.34375,-7.59375 -1.5,-4.5 -1.5,-10.28125 0,-5.6875 1.5,-10.1875 1.5,-4.53125 4.375,-7.75 2.75,-3.0625 6.8125,-4.6875 4.09375,-1.625 8.90625,-1.625 5,0 8.96875,1.65625 4,1.625 6.78125,4.65625 z m -0.5625,17.9375 q 0,-9.0625 -4.0625,-13.96875 -4.0625,-4.9375 -11.09375,-4.9375 -7.09375,0 -11.15625,4.9375 -4.03125,4.90625 -4.03125,13.96875 0,9.15625 4.125,14.03125 4.125,4.84375 11.0625,4.84375 6.9375,0 11.03125,-4.84375 4.125,-4.875 4.125,-14.03125 z"
         style="font-style:normal;font-variant:normal;font-weight:normal;font-stretch:normal;font-size:64px;font-family:roboto;-inkscape-font-specification:roboto;fill:#ffffff;fill-opacity:1"
         id="path4591"
         inkscape:connector-curvature="0" />
      <path
         d="m 388.74023,181.10203 q 0,5.0625 -1.125,8.84375 -1.09375,3.75 -3.625,6.25 -2.40625,2.375 -5.625,3.46875 -3.21875,1.09375 -7.5,1.09375 -4.375,0 -7.625,-1.15625 -3.25,-1.15625 -5.46875,-3.40625 -2.53125,-2.5625 -3.65625,-6.1875 -1.09375,-3.625 -1.09375,-8.90625 v -27.84375 h 6.1875 v 28.15625 q 0,3.78125 0.5,5.96875 0.53125,2.1875 1.75,3.96875 1.375,2.03125 3.71875,3.0625 2.375,1.03125 5.6875,1.03125 3.34375,0 5.6875,-1 2.34375,-1.03125 3.75,-3.09375 1.21875,-1.78125 1.71875,-4.0625 0.53125,-2.3125 0.53125,-5.71875 v -28.3125 h 6.1875 z"
         style="font-style:normal;font-variant:normal;font-weight:normal;font-stretch:normal;font-size:64px;font-family:roboto;-inkscape-font-specification:roboto;fill:#ffffff;fill-opacity:1"
         id="path4593"
         inkscape:connector-curvature="0" />
      <path
         d="m 439.08398,199.78953 h -8.03125 l -15.5625,-18.5 h -8.71875 v 18.5 h -6.1875 v -46.53125 h 13.03125 q 4.21875,0 7.03125,0.5625 2.8125,0.53125 5.0625,1.9375 2.53125,1.59375 3.9375,4.03125 1.4375,2.40625 1.4375,6.125 0,5.03125 -2.53125,8.4375 -2.53125,3.375 -6.96875,5.09375 z m -14.46875,-33.4375 q 0,-2 -0.71875,-3.53125 -0.6875,-1.5625 -2.3125,-2.625 -1.34375,-0.90625 -3.1875,-1.25 -1.84375,-0.375 -4.34375,-0.375 h -7.28125 v 17.5625 h 6.25 q 2.9375,0 5.125,-0.5 2.1875,-0.53125 3.71875,-1.9375 1.40625,-1.3125 2.0625,-3 0.6875,-1.71875 0.6875,-4.34375 z"
         style="font-style:normal;font-variant:normal;font-weight:normal;font-stretch:normal;font-size:64px;font-family:roboto;-inkscape-font-specification:roboto;fill:#ffffff;fill-opacity:1"
         id="path4595"
         inkscape:connector-curvature="0" />
      <path
         d="m 500.77148,158.75828 h -16.625 v 41.03125 h -6.1875 v -41.03125 h -16.625 v -5.5 h 39.4375 z"
         style="font-style:normal;font-variant:normal;font-weight:normal;font-stretch:normal;font-size:64px;font-family:roboto;-inkscape-font-specification:roboto;fill:#ffffff;fill-opacity:1"
         id="path4597"
         inkscape:connector-curvature="0" />
      <path
         d="m 537.74023,199.78953 h -30.65625 v -46.53125 h 30.65625 v 5.5 h -24.46875 v 12.75 h 24.46875 v 5.5 h -24.46875 v 17.28125 h 24.46875 z"
         style="font-style:normal;font-variant:normal;font-weight:normal;font-stretch:normal;font-size:64px;font-family:roboto;-inkscape-font-specification:roboto;fill:#ffffff;fill-opacity:1"
         id="path4599"
         inkscape:connector-curvature="0" />
      <path
         d="m 584.27148,199.78953 h -6.59375 l -4.5625,-12.96875 h -20.125 l -4.5625,12.96875 h -6.28125 l 16.9375,-46.53125 h 8.25 z m -13.0625,-18.28125 -8.15625,-22.84375 -8.1875,22.84375 z"
         style="font-style:normal;font-variant:normal;font-weight:normal;font-stretch:normal;font-size:64px;font-family:roboto;-inkscape-font-specification:roboto;fill:#ffffff;fill-opacity:1"
         id="path4601"
         inkscape:connector-curvature="0" />
      <path
         d="m 632.77148,199.78953 h -6.1875 v -40.09375 l -12.9375,27.28125 h -3.6875 l -12.84375,-27.28125 v 40.09375 h -5.78125 v -46.53125 h 8.4375 l 12.40625,25.90625 12,-25.90625 h 8.59375 z"
         style="font-style:normal;font-variant:normal;font-weight:normal;font-stretch:normal;font-size:64px;font-family:roboto;-inkscape-font-specification:roboto;fill:#ffffff;fill-opacity:1"
         id="path4603"
         inkscape:connector-curvature="0" />
    </g>
    <circle
       style="fill:#ffffff;fill-opacity:1;stroke:none;stroke-width:0.26458332"
       id="path4536"
       cx="170.84059"
       cy="214.17097"
       r="3.5" />
    <circle
       style="fill:#ffffff;fill-opacity:1;stroke:none;stroke-width:0.26458332"
       id="path4536-2"
       cx="179.72729"
       cy="214.17099"
       r="3.5" />
    <circle
       style="fill:#ffffff;fill-opacity:1;stroke:none;stroke-width:0.26458332"
       id="path4536-2-2"
       cx="188.61401"
       cy="214.20978"
       r="3.5" />
  </g>
</svg>
