<svg xmlns="http://www.w3.org/2000/svg" viewBox="0 0 560 512" height="512" width="560"><g fill="#D3DBE3"><path d="M241.7 93.4v-30c7.1-1.6 12.5-7.9 12.5-15.5 0-8.8-7.1-15.9-16-15.9-8.8 0-16 7.1-16 15.9 0 6.9 4.5 12.8 10.7 14.9v30.6h-85v123.3h180.4V93.4h-86.6zM90 373.2h20.6V512h260.6V373.2h20.7V512H480V247.6H0L.3 512H90z"/></g><path fill="#fff" d="M208.9 326.6c2.1-1.2 4.3-2.3 6.8-3.4 5-2.1 9.9-3.3 15.2-3.8l5.6 6.5-2.5 6.6c-5.1 1-9.8 2.8-14.3 5.5-.4.2-.7.4-1 .6l-.9-8.6-8.9-3.4zM206.4 328.1l9 3.5.9 8.5c-4.9 3.6-8.6 8.1-11.3 13.7-.3.5-.5 1-.7 1.5l-6.3-7.7-10.3 2.2c2.5-5.5 6-10.5 10.3-14.8 2.6-2.6 5.4-4.9 8.4-6.9zM265.4 388.4c1-1.7 1.8-3.3 2.3-5l9.7 11.7 16.3-3.5c-.9 2.5-2.1 5.1-3.3 7.5-3.4 6.5-7.8 12.1-13.2 16.8-5.5 4.8-11.9 8.3-18.8 10.5-.1.1-.3.1-.4.1l-12.1-10.2 3.2-13.9c.1 0 .1-.1.3-.1 6.7-2.6 12.1-7.4 16-13.9zM285.8 333.5c1 1.4 1.9 2.8 2.8 4.3 3.7 6.3 6.3 12.9 7.7 20.1 1.4 7 1.6 14.2.6 21.3-.5 3.5-1.2 6.8-2.2 10l-16.3 3.5-9.8-11.8c1.2-4.3 1.2-8.8.4-13.6-1.1-5.6-3.6-10.3-7.3-14.3l17.6-2.1 6.5-17.4zM186.6 352.4l10.5-2.2 6.2 7.6c-1.9 5.4-2.3 11.1-1.4 17 .3 1.7.7 3.3 1.1 4.9l-11.1-2.5-8 9.4c-1-4.1-1.4-8.4-1.4-12.8 0-7.2 1.4-14.2 4-21 .1-.3.1-.4.1-.4zM203.8 382.2c1.6 4.2 3.9 8.1 7 11.6 2.3 2.6 5 4.9 7.9 6.6l-11 6.3.6 14.3c-3.7-2.2-7-5-10-8.1-5.1-5.3-9-11.2-11.7-18.1-.8-1.9-1.4-3.8-1.9-5.6l8.1-9.7 11 2.7zM221.1 401.7c2.3 1.2 4.9 2.1 7.6 2.7 6.1 1.4 11.9 1.2 17.6-.7l-3.2 13.8 11.9 10.1c-6 1.6-12.1 2.2-18.3 2-7.2-.3-14.2-1.8-21-4.6-1.8-.7-3.6-1.6-5.2-2.5l-.6-14.4 11.2-6.4zM284.2 331.3l-6.6 17.4-18.1 2.1c-.6-.5-1-.9-1.7-1.3-5.9-4.5-12.6-7.1-20.1-7.9-1.7-.1-3.4-.2-5-.1l6.3-16.1-13.7-15.6c4.1-.4 8.2-.5 12.3-.4 2.4.1 4.9.3 7.3.6 3.5.5 6.8 1.1 10.1 2.1 7 2 13.4 5.2 19.2 9.7 3.9 2.8 7 6 10 9.5z"/></svg>