<svg xmlns="http://www.w3.org/2000/svg" viewBox="0 0 258.1 238.2" enable-background="new 0 0 258.1 238.2"><g><linearGradient id="a" gradientUnits="userSpaceOnUse" x1="131.98" y1="218.755" x2="131.98" y2="38.997" gradientTransform="matrix(.866 -.5 .5 .866 -42.997 82.032)"><stop offset="0" stop-color="#4D9B46"/><stop offset="1" stop-color="#5AB552"/></linearGradient><path fill-rule="evenodd" clip-rule="evenodd" fill="url(#a)" d="M51.7 72.1c-7.2 4.1-9.6 13.3-5.5 20.5l75 129.9c4.1 7.2 13.3 9.6 20.5 5.5l77.9-45c7.2-4.1 9.6-13.3 5.5-20.5l-75-129.9c-4.1-7.2-13.3-9.6-20.5-5.5l-77.9 45z"/><path fill-rule="evenodd" clip-rule="evenodd" fill="#4D9B46" d="M145.5 234.5c0 .1.1.2.1.3 2.1 3.4 6.6 4.5 10.1 2.5.1 0 .2-.1.3-.1l12.7-7.4c.1 0 .2-.1.3-.1 3.3-2.1 4.5-6.4 2.6-9.8l-.2-.3-3.8-6.5-6.5 3.8-13 7.5-6.5 3.8 3.9 6.3zM197.4 204.5c.1.1.1.2.2.3 2.1 3.4 6.6 4.5 10.1 2.5.1 0 .2-.1.3-.1l12.7-7.4c.1 0 .2-.1.3-.1 3.3-2.1 4.5-6.4 2.6-9.8l-.2-.3-3.8-6.5-6.5 3.8-13 7.5-6.5 3.8 3.8 6.3z"/><path fill-rule="evenodd" clip-rule="evenodd" fill="#CED900" d="M76.3 23.2c6.3-3.6 28 18.5 28 18.5l-26 15s-8.6-29.6-2-33.5zM57.8 51.2c3.1-1.8 14 9.2 14 9.2l-13 7.5c0 .1-4.3-14.8-1-16.7zM109.8 21.2c3.1-1.8 14 9.2 14 9.2l-13 7.5c0 .1-4.3-14.8-1-16.7z"/><path fill-rule="evenodd" clip-rule="evenodd" fill="#4D9B46" d="M179.9 84.1l-22.4-38.7c-.1-20.3 4.9-37.4 15.9-43.6 20-11.3 52.4 33.4 48.9 41.7-2.3 5.5-17-9.8-19.8-5.2-3.4 5.7 12.8 20.9 9.8 27-2.9 6-18.9-9.1-21.7-3.8-2.4 4.6 11.7 22.7 8.2 29.1-2.8 5.2-18.9-6.5-18.9-6.5zM76 144.1s-22.3-38.7-22.4-38.7C36 95.2 18.8 91 7.9 97.4c-19.8 11.7 2.7 62.1 11.7 63.2 5.9.7 0-19.6 5.4-19.8 6.6-.1 11.7 21.5 18.5 22 6.6.4 1.6-20.9 7.6-20.7 5.2.2 13.8 21.5 21.1 21.7 5.8.2 3.8-19.7 3.8-19.7zM202.3 122.9c36.9 9.9 38.5-24.4 50-28.5 11.5-4.1 7.9 47-27.5 67.4 0 .1-22.5-38.9-22.5-38.9z"/><linearGradient id="b" gradientUnits="userSpaceOnUse" x1="131.979" y1="218.756" x2="131.979" y2="143.754" gradientTransform="matrix(.866 -.5 .5 .866 -42.997 82.032)"><stop offset="0" stop-color="#4D9B46" stop-opacity="0"/><stop offset="1" stop-color="#4D9B46"/></linearGradient><path fill-rule="evenodd" clip-rule="evenodd" fill="url(#b)" d="M133.9 214.5l4.1 7.1c2.1 3.6 6.6 4.8 10.2 2.7l65-37.5c3.6-2.1 4.8-6.6 2.8-10.2l-4.1-7.1c-14.4-24.9-47.2-41.4-68.7-29-21.5 12.5-23.6 49.1-9.3 74z"/><path opacity=".25" fill-rule="evenodd" clip-rule="evenodd" fill="#fff" d="M133.9 214.5l.3.5 77.9-45-.3-.5c-2.4-4.2-5.3-8.1-8.6-11.7l-75.1 43.4c1.5 4.6 3.4 9.1 5.8 13.3z"/><path opacity=".35" fill-rule="evenodd" clip-rule="evenodd" fill="#fff" d="M191.3 147.4c-5-3.5-10.4-6.3-15.8-8.2l-49.7 28.7c-1.1 5.7-1.3 11.7-.8 17.8l66.3-38.3z"/></g><g fill-rule="evenodd" clip-rule="evenodd"><path fill="#fff" d="M109.2 150c-3.3 1.1-10.9-12.2-10.9-12.2l13.7-4.4c0 .1.7 15.5-2.8 16.6z"/><path fill="#fff" d="M168.2 116c2.6-2.3-5.1-15.5-5.1-15.5l-10.6 9.7c0-.1 13 8.2 15.7 5.8z"/><path fill="none" stroke="#222" stroke-width="3" stroke-linecap="round" stroke-linejoin="round" stroke-miterlimit="10" d="M89.2 137.1c23.4 1.8 68.6-24.8 77.9-45"/><path d="M128.3 105.8c-1.7-2.9-1.8-5.9-.4-6.7 1.4-.8 3.9.8 5.6 3.7 1.7 2.9 1.8 5.9.4 6.7-1.4.8-3.9-.8-5.6-3.7z"/><path d="M116.6 112.6c-1.7-2.9-1.8-5.9-.4-6.7 1.4-.8 3.9.8 5.6 3.7 1.7 2.9 1.8 5.9.4 6.7-1.4.8-3.9-.9-5.6-3.7z"/><path fill="#fff" d="M120.7 86.6c-5.6-9.8-9.1-23.1-1.9-27.3s22.2 2.5 27.9 12.3c5.6 9.8 4.4 21.1-2.8 25.2-7.2 4.1-17.6-.4-23.2-10.2z"/><path fill="#fff" d="M107.7 94.1c-5.6-9.8-15.5-19.4-22.7-15.3-7.2 4.1-9 20.5-3.3 30.3 5.6 9.8 16 14.4 23.2 10.2 7.2-4.1 8.4-15.4 2.8-25.2z"/><path d="M123.7 84.2c-3.1-5.4-1.3-12.3 4.1-15.4 5.4-3.1 12.3-1.3 15.4 4.1 3.1 5.4 1.3 12.3-4.1 15.4-5.4 3.2-12.3 1.3-15.4-4.1z"/><path d="M84.7 106.7c-3.1-5.4-1.3-12.3 4.1-15.4 5.4-3.1 12.3-1.3 15.4 4.1 3.1 5.4 1.3 12.3-4.1 15.4-5.4 3.2-12.3 1.3-15.4-4.1z"/><path fill="#fff" d="M95.7 96.5c-2-.5-3.3-2.1-2.9-3.5.4-1.4 2.3-2.1 4.3-1.6s3.3 2.1 2.9 3.5c-.4 1.4-2.4 2.1-4.3 1.6z"/><path fill="#fff" d="M134.6 74c-2-.5-3.3-2.1-2.9-3.5.4-1.4 2.3-2.1 4.3-1.6s3.3 2.1 2.9 3.5c-.4 1.4-2.3 2.1-4.3 1.6z"/></g><g><path opacity=".1" fill-rule="evenodd" clip-rule="evenodd" d="M145.5 234.5c0 .1.1.2.1.3 2.1 3.4 6.6 4.5 10.1 2.5.1 0 .2-.1.3-.1l12.7-7.4c.1 0 .2-.1.3-.1 3.3-2.1 4.5-6.4 2.6-9.8l-.2-.3-3.8-6.5-6.5 3.8-13 7.5-6.5 3.8 3.9 6.3zM197.4 204.5c.1.1.1.2.2.3 2.1 3.4 6.6 4.5 10.1 2.5.1 0 .2-.1.3-.1l12.7-7.4c.1 0 .2-.1.3-.1 3.3-2.1 4.5-6.4 2.6-9.8l-.2-.3-3.8-6.5-6.5 3.8-13 7.5-6.5 3.8 3.8 6.3z"/><linearGradient id="c" gradientUnits="userSpaceOnUse" x1="130.781" y1="23.752" x2="147.732" y2="23.752" gradientTransform="matrix(.866 -.5 .5 .866 -42.997 82.032)"><stop offset="0" stop-color="#222" stop-opacity="0"/><stop offset="1" stop-color="#222"/></linearGradient><path opacity=".15" fill-rule="evenodd" clip-rule="evenodd" fill="url(#c)" d="M76.3 23.2c-.6.3-1 .8-1.4 1.5 7.4.7 22.9 20.7 22.9 20.7l6.5-3.8c0 .1-21.7-22-28-18.4z"/><linearGradient id="d" gradientUnits="userSpaceOnUse" x1="161.551" y1="31.252" x2="170.231" y2="31.252" gradientTransform="matrix(.866 -.5 .5 .866 -42.997 82.032)"><stop offset="0" stop-color="#222" stop-opacity="0"/><stop offset="1" stop-color="#222"/></linearGradient><path opacity=".15" fill-rule="evenodd" clip-rule="evenodd" fill="url(#d)" d="M109.8 21.2c-.3.2-.6.5-.8 1 3.7.7 10.9 10.5 10.9 10.5l3.9-2.2s-10.9-11.1-14-9.3z"/><linearGradient id="e" gradientUnits="userSpaceOnUse" x1="101.55" y1="31.251" x2="110.23" y2="31.251" gradientTransform="matrix(.866 -.5 .5 .866 -42.997 82.032)"><stop offset="0" stop-color="#222" stop-opacity="0"/><stop offset="1" stop-color="#222"/></linearGradient><path opacity=".15" fill-rule="evenodd" clip-rule="evenodd" fill="url(#e)" d="M57.8 51.2c-.3.2-.6.5-.8 1 3.7.7 10.9 10.5 10.9 10.5l3.9-2.2s-10.8-11.1-14-9.3z"/><linearGradient id="f" gradientUnits="userSpaceOnUse" x1="221.981" y1="128.301" x2="221.981" y2="66.499" gradientTransform="matrix(.866 -.5 .5 .866 -42.997 82.032)"><stop offset="0" stop-color="#222"/><stop offset="1" stop-color="#222" stop-opacity="0"/></linearGradient><path opacity=".15" fill-rule="evenodd" clip-rule="evenodd" fill="url(#f)" d="M179.9 84.1s16.1 11.7 18.9 6.6c3.5-6.4-10.7-24.5-8.2-29.1 2.8-5.3 18.8 9.8 21.7 3.8 3-6.2-13.2-21.4-9.8-27 2.8-4.6 17.5 10.7 19.8 5.2 1.8-4.2-5.7-17.9-16.2-28.8 7.7 9.5 6.7 16.8 5.2 20.4-2.3 5.5-11.1-7.1-14-2.5-3.4 5.7 6.9 18.2 3.9 24.4-2.9 6-13.1-6.4-15.9-1.1-2.4 4.6 5.8 20 2.4 26.4-2 3.8-5.4 1.1-10.2-2l2.4 3.7z"/><linearGradient id="g" gradientUnits="userSpaceOnUse" x1="41.983" y1="129.048" x2="41.977" y2="65.726" gradientTransform="matrix(.866 -.5 .5 .866 -42.997 82.032)"><stop offset="0" stop-color="#222"/><stop offset="1" stop-color="#222" stop-opacity="0"/></linearGradient><path opacity=".15" fill-rule="evenodd" clip-rule="evenodd" fill="url(#g)" d="M76 144.1s2.1 19.8-3.8 19.7c-7.2-.2-15.9-21.5-21.1-21.7-6-.2-.9 21.2-7.6 20.7-6.8-.5-11.9-22.1-18.5-22-5.4.1.5 20.5-5.4 19.8C15 160 7 146.7 2.7 132.2c4.4 11.4 11.2 14.2 15 14.7 5.9.7-.6-13.2 4.8-13.3 6.6-.1 12.3 15.1 19.2 15.6 6.6.4 1-14.5 7-14.3 5.2.2 14.5 15.1 21.7 15.3 4.3.1 3.7-4.2 3.4-9.8l2.2 3.7z"/><linearGradient id="h" gradientUnits="userSpaceOnUse" x1="222.138" y1="203.386" x2="222.138" y2="158.485" gradientTransform="matrix(.866 -.5 .5 .866 -42.997 82.032)"><stop offset="0" stop-color="#222"/><stop offset="1" stop-color="#222" stop-opacity="0"/></linearGradient><path opacity=".15" fill-rule="evenodd" clip-rule="evenodd" fill="url(#h)" d="M217.2 148.8l7.6 13.1c35.4-20.4 39.1-71.5 27.5-67.4-.3.1-.6.3-.9.4 8 13.8-14 44.9-34.2 53.9z"/></g></svg>