<svg xmlns="http://www.w3.org/2000/svg" xmlns:xlink="http://www.w3.org/1999/xlink" viewBox="0 0 2048 1024" height="1024" width="2048"><path fill="#263238" d="M505 67.2l-96-64c-1.6-1.6-4.8-3.2-8-3.2H113c-3.2 0-6.4 1.6-8 3.2l-96 64c-4.8 3.2-8 8-8 12.8v160c0 9.6 6.4 16 16 16h480c9.6 0 16-6.4 16-16V80c0-4.8-3.2-9.6-8-12.8zM117.8 32h278.4l48 32H69.8l48-32zM33 96h448v128H33V96zM505 451.2l-96-64c-1.6-1.6-4.8-3.2-8-3.2H113c-3.2 0-6.4 1.6-8 3.2l-96 64c-4.8 3.2-8 8-8 12.8v160c0 9.6 6.4 16 16 16h480c9.6 0 16-6.4 16-16V464c0-4.8-3.2-9.6-8-12.8zM117.8 416h278.4l48 32H69.8l48-32zM33 480h448v128H33V480zM1273 67.2l-96-64c-1.6-1.6-4.8-3.2-8-3.2H881c-3.2 0-6.4 1.6-8 3.2l-96 64c-4.8 3.2-8 8-8 12.8v160c0 9.6 6.4 16 16 16h480c9.6 0 16-6.4 16-16V80c0-4.8-3.2-9.6-8-12.8zM885.8 32h278.4l48 32H837.8l48-32zM801 96h448v128H801V96zM1273 451.2l-96-64c-1.6-1.6-4.8-3.2-8-3.2H881c-3.2 0-6.4 1.6-8 3.2l-96 64c-4.8 3.2-8 8-8 12.8v160c0 9.6 6.4 16 16 16h480c9.6 0 16-6.4 16-16V464c0-4.8-3.2-9.6-8-12.8zM885.8 416h278.4l48 32H837.8l48-32zM801 480h448v128H801V480zM505 835.2l-96-64c-1.6-1.6-4.8-3.2-8-3.2H113c-3.2 0-6.4 1.6-8 3.2l-96 64c-4.8 3.2-8 8-8 12.8v160c0 9.6 6.4 16 16 16h480c9.6 0 16-6.4 16-16V848c0-4.8-3.2-9.6-8-12.8zM117.8 800h278.4l48 32H69.8l48-32zM33 864h448v128H33V864zM1273 835.2l-96-64c-1.6-1.6-4.8-3.2-8-3.2H881c-3.2 0-6.4 1.6-8 3.2l-96 64c-4.8 3.2-8 8-8 12.8v160c0 9.6 6.4 16 16 16h480c9.6 0 16-6.4 16-16V848c0-4.8-3.2-9.6-8-12.8zM885.8 800h278.4l48 32H837.8l48-32zM801 864h448v128H801V864zM2041 67.2l-96-64c-1.6-1.6-4.8-3.2-8-3.2h-288c-3.2 0-6.4 1.6-8 3.2l-96 64c-4.8 3.2-8 8-8 12.8v160c0 9.6 6.4 16 16 16h480c9.6 0 16-6.4 16-16V80c0-4.8-3.2-9.6-8-12.8zM1653.8 32h278.4l48 32h-374.4l48-32zM1569 96h448v128h-448V96zM2041 451.2l-96-64c-1.6-1.6-4.8-3.2-8-3.2h-288c-3.2 0-6.4 1.6-8 3.2l-96 64c-4.8 3.2-8 8-8 12.8v160c0 9.6 6.4 16 16 16h480c9.6 0 16-6.4 16-16V464c0-4.8-3.2-9.6-8-12.8zM1653.8 416h278.4l48 32h-374.4l48-32zm-84.8 64h448v128h-448V480zM2041 835.2l-96-64c-1.6-1.6-4.8-3.2-8-3.2h-288c-3.2 0-6.4 1.6-8 3.2l-96 64c-4.8 3.2-8 8-8 12.8v160c0 9.6 6.4 16 16 16h480c9.6 0 16-6.4 16-16V848c0-4.8-3.2-9.6-8-12.8zM1653.8 800h278.4l48 32h-374.4l48-32zm-84.8 64h448v128h-448V864z"/><circle id="a" fill="#5BA552" cx="401" cy="144" r="16"/><circle id="b" fill="#5BA552" cx="401" cy="528" r="16"/><circle id="c" fill="#5BA552" cx="401" cy="912" r="16"/><circle id="d" fill="#5BA552" cx="1169" cy="144" r="16"/><circle id="e" fill="#5BA552" cx="1169" cy="528" r="16"/><circle id="f" fill="#5BA552" cx="1169" cy="912" r="16"/><circle id="g" fill="#5BA552" cx="1937" cy="144" r="16"/><circle id="h" fill="#5BA552" cx="1937" cy="528" r="16"/><circle id="i" fill="#5BA552" cx="1937" cy="912" r="16"/><animate xlink:href="#a" attributeName="fill" from="#5BA552" to="#586B7F" begin="0" dur="0.3s" repeatCount="indefinite"/><animate xlink:href="#b" attributeName="fill" from="#5BA552" to="#586B7F" begin=".1" dur="0.3s" repeatCount="indefinite"/><animate xlink:href="#c" attributeName="fill" from="#5BA552" to="#586B7F" begin=".2" dur="0.3s" repeatCount="indefinite"/><animate xlink:href="#d" attributeName="fill" from="#5BA552" to="#586B7F" begin=".2" dur="0.3s" repeatCount="indefinite"/><animate xlink:href="#e" attributeName="fill" from="#5BA552" to="#586B7F" begin=".3" dur="0.3s" repeatCount="indefinite"/><animate xlink:href="#f" attributeName="fill" from="#5BA552" to="#586B7F" begin=".4" dur="0.3s" repeatCount="indefinite"/><animate xlink:href="#g" attributeName="fill" from="#5BA552" to="#586B7F" begin=".3" dur="0.3s" repeatCount="indefinite"/><animate xlink:href="#h" attributeName="fill" from="#5BA552" to="#586B7F" begin=".4" dur="0.3s" repeatCount="indefinite"/><animate xlink:href="#i" attributeName="fill" from="#5BA552" to="#586B7F" begin=".5" dur="0.3s" repeatCount="indefinite"/></svg>