<svg viewBox="0 0 1200 300" xmlns="http://www.w3.org/2000/svg" fill-rule="evenodd" clip-rule="evenodd" stroke-linejoin="round" stroke-miterlimit="1.414"><path d="M571.7 163.4c-27.5 0-49.8 22.3-49.8 49.8 0 27.5 22.3 49.8 49.8 49.8 27.5 0 49.8-22.3 49.8-49.8 0-27.5-22.3-49.8-49.8-49.8zm-227.1 39.7v17.1c0 10.4-7.1 18.1-18.1 18.1-11 0-18-7.8-18-18.1v-3.1h10.4v3.7c0 3.8 2.3 7.6 7.5 7.6 5.3 0 7.6-3.9 7.6-7.6v-17.7h10.6zm15.4 17.8c1.4 5 5.3 8.1 10.3 8.1 3.5 0 6.9-1.5 8.7-4.8h11.2c-2.4 8.3-9.6 14-19.8 14-11.5 0-21-9.5-21-21.4 0-11.9 9.5-21.6 21-21.6 12 .1 22 9.4 20.5 25.7H360zm46.4-31.4v8.8h15v9.9h-15v12.5c0 3.8 2.3 7.6 7.6 7.6 5.2 0 7.5-3.9 7.5-7.6v-3.9l10.5-.1v3.3c0 10.4-7 18.1-18 18.1s-18.1-7.8-18.1-18.1v-30.5h10.5zM708 213.1c0-13.2 10.8-24 24-24.1 7.8 0 14 2.8 17.6 7.8.4.5.4 1.2-.1 1.6-.4.3-.9.3-1.3.1-2.5-1.4-5.6-2.2-9-2.4 2.5 2 4.8 4.5 6.8 7.4.13.22.282.457.434.697l.132.206c.152.24.303.478.434.697 1-1 1.7-2.1 1.9-3.4.1-.6.7-1 1.3-.9.6.1 1 .7.9 1.3-.4 1.9-1.4 3.6-3 5 2.2 4.3 3.4 8.8 3.4 13.1v1.1c.8-.9 1.4-1.8 1.7-2.9.4-1.7.6-3.5.6-5.3 0-2.9-.6-5.8-1.7-8.5-.2-.6 0-1.3.6-1.5.6-.2 1.3 0 1.5.6 1.3 3 1.9 6.1 1.9 9.4 0 1.7-.2 3.3-.5 4.9v.2c-.1.3-.1.5-.2.8-1.4 5.5-4.7 10.2-9.1 13.5-.3.2-.5.3-.7.5 0 .1-.1.1-.1.1-3.9 2.6-8.5 4.1-13.5 4.1-10.8 0-20-7.2-23-17v-.1c0-.1-.1-.3-.1-.4-.6-2.1-.9-4.3-.9-6.6zm24 21.9c.9 0 2.1-2.3 3.1-6.6-2.1-.1-4.1-.4-6.2-.8-2.7-.6-5.3-1.4-7.7-2.5-.6 4.2-.1 7 1.1 7.6.1 0 .1.1.2.1 2.9 1.4 6 2.1 9.3 2.2h.2zm5.5-6.4c-.6 2.5-1.3 4.6-2.2 6.2 3.6-.5 6.9-1.9 9.7-4 1.4-1.1 2.4-2.6 3.2-4.4-.6.3-1.2.6-1.9.8-2.6.9-5.6 1.4-8.8 1.4zm85.5 3.2c-.2 0-.4-.2-.4-.4v-9c0-.2.2-.4.4-.4s.4.2.4.4v9c0 .2-.2.4-.4.4zm67-4.1v1.1c0 1-.6 2.2-2.4 2.2-1.8 0-2.8-1.1-2.8-3.1 0-2.1.9-3.2 2.7-3.2 1.9 0 2.3 1.7 2.3 2.1l-1.2.2v-.1s0-1.1-1.1-1.1c-.9 0-1.4.7-1.4 2s.5 2 1.4 2c1 0 1.1-.7 1.1-1.1v-.1h-1.4l.2-.9h2.6zm-111 3.1h-1.6v-8h2.8c2 0 3 .7 3 2.5 0 1.2-.8 1.8-1.4 2 .8.7.9 2.2 1.9 2.2h.3v1.3h.2c-.002 0-.302.1-.8.1-2.4 0-1.8-3.1-3.5-3.1h-.9v3zm84.9.1h-2.6v-6.2h2.4c1.3 0 2 .6 2 1.7-.2.7-.5 1-.7 1.2.5.1 1.1.6 1.1 1.5 0 1.1-.8 1.8-2.2 1.8zm35.1-6.3c1.3 0 2.8.8 2.8 3.2 0 2.3-1.4 3.1-2.8 3.1s-2.8-.8-2.8-3.1c0-2.5 1.5-3.2 2.8-3.2zm-59 0c1.3 0 2.8.8 2.8 3.2 0 2.3-1.4 3.1-2.8 3.1s-2.8-.8-2.8-3.1c0-2.5 1.5-3.2 2.8-3.2zm4.8 6.2h-1.3v-6.2h2.2c1.6 0 2.3.6 2.3 2 0 .8-.5 1.3-1 1.6.2.1.5.4.5.7.2.4.4.8.8.8h.3v1s-.2.1-.6.1c-1 0-1.4-.7-1.6-1.3-.2-.5-.4-1-1-1h-.6v2.3zm-42.2 0H801v-8h1.6v8zm4.1 0H804v-8h2.4c2.1 0 4 1.1 4 4.1 0 2.9-1.7 3.9-3.7 3.9zm-19.2 0h-2.6v-8h2.3c2.1 0 4 1.1 4 4.1 0 2.9-1.7 3.9-3.7 3.9zm104.6 0h-1.3v-6.2h2.2c1.6 0 2.3.6 2.3 2 0 .8-.5 1.3-1 1.6.2.1.4.4.6.7.2.4.4.8.8.8h.3v1s-.2.1-.7.1c-1 0-1.4-.7-1.6-1.3-.2-.5-.4-1-1-1h-.6v2.3zm-123.3 0h-1.6v-8h1.6v8zm49 0h-1.6l-.7-2h-2.9l-.7 2h-1.7l3-8h1.6l3 8zm13.7 0H830l-1.8-6.2h1.5l1 4.5 1.2-4.5h1.1l1.2 4.5 1.3-4.5h1.5l-1.8 6.2h-1.5l-1.1-3.9-1.1 3.9zm48.3-3.4l2-2.8h1.6l-2.3 3.1 2.4 3.1h-1.6l-2.1-2.9v2.9h-1.3v-6.2h1.3v2.8zm-109.6 3.4v-8h3c1.6 0 2.6.6 2.6 2.1 0 1.4-.8 1.7-1.2 1.7.5 0 1.8.5 1.8 2 0 1.7-1.3 2.2-2.8 2.2h-3.4zm80.5-6.2v5.1h2.7v1.1h-4v-6.2h1.3zm59.1 6.2h-1.3v-6.2h2.2c1.6 0 2.4.8 2.4 2.1s-.8 2.1-2.3 2.1h-1v2zm-6-6.2v3.7c0 1 .4 1.4 1.1 1.4.7 0 1.1-.5 1.1-1.4l.1-3.7h1.3v3.6c0 2.2-1.3 2.6-2.4 2.6-.8 0-1.4-.2-1.8-.6-.5-.4-.7-1.1-.7-2v-3.6h1.3zm-27.9 3.8v-3.8h1.3v6.2h-1.3l-2.2-3.7v3.7h-1.3v-6.2h1.3l2.2 3.8zm-3.9 2.4h-1.4l-.5-1.5H868l-.5 1.5H866l2.3-6.2h1.5l2.2 6.2zm-15.9 0H854v-6.2h1.8c1.9 0 3.1 1.2 3.1 3.2 0 1.9-1 3-2.8 3zM711 219.1c1.4 4.7 4.2 8.7 7.7 11.4-.3-1.8-.1-4 .3-6.5-2.1-1.1-4.1-2.5-5.7-4-1-1-1.9-2-2.7-3.1.1.7.2 1.5.4 2.2zm62.2 8.3h-1.4v2.3l1.4-.1c.8 0 1.4-.3 1.4-1.1s-.6-1.1-1.4-1.1zm33.5 2.2c1.2 0 2.1-.9 2.1-2.6 0-1.8-.8-2.9-2.4-2.9h-.8v5.5h1.1zm-19.5-5.5h-.8v5.5h1.1c1.2 0 2.1-.9 2.1-2.6 0-1.8-.8-2.9-2.4-2.9zm111.8 5.5c.5 0 1.4-.3 1.4-2s-.9-2-1.4-2c-.9 0-1.4.7-1.4 2s.4 2 1.4 2zm-35.5-1.6h-1v1.6h1c.7 0 1-.3 1-.8 0-.7-.6-.8-1-.8zm-7.8-2.4h-.5v4h.8c1 0 1.5-.7 1.5-1.9 0-1.4-.6-2.1-1.8-2.1zm-15.7 4c.5 0 1.4-.3 1.4-2s-.9-2-1.4-2c-.9 0-1.4.7-1.4 2s.4 2 1.4 2zm-44.1-.7c-.8 0-1.5-.7-1.5-1.5s.7-1.5 1.5-1.5 1.5.7 1.5 1.5-.6 1.5-1.5 1.5zm73.1-2.7l-.7 1.9h1.4l-.7-1.9zm41.5-.4h-.8v2h.9c.8 0 1.1-.3 1.1-1s-.4-1-1.2-1zm-97.3 1.8h2l-1-2.9-1 2.9zm32.5-2h-.8v1.8h.7c.7 0 1.2-.4 1.2-.9 0-.6-.4-.9-1.1-.9zm47.3 0h-.8v1.8h.7c.7 0 1.2-.4 1.2-.9 0-.6-.4-.9-1.1-.9zm-29.7.1h-.7v1.4h.9c.5 0 .8-.2.8-.7 0-.5-.3-.7-1-.7zm-83.1-1.7H779v2.6h1c1 0 1.7-.4 1.7-1.3 0-.8-.6-1.3-1.5-1.3zm-41.3-10.9c0 4.5-.4 9.1-1 13.2 2.8-.1 5.4-.5 7.7-1.3 1.3-.5 2.5-1 3.5-1.6.2-1 .3-2.1.3-3.2 0-3.9-1.1-7.9-3-11.8-2.1 1.2-4.7 1.9-7.5 2.1v2.6zm-9.4 12.3c2 .4 4 .7 6 .8.6-3.4 1-7.8 1-13.1v-2.6c-1.3 0-2.7-.2-4.1-.5-1.8-.4-3.6-1-5.2-1.7-.3.6-.7 1.3-1 2-2.3 4.7-3.7 9-4.5 12.5 2.4 1.1 5 2 7.8 2.6zm43.4-1.4h-1.1v2.1h1.4c.9 0 1.1-.4 1.1-1.1 0-.7-.4-1-1.4-1zm-173.9.2c-6.2 0-11.2-5-11.2-11.2 0-6.2 5-11.2 11.2-11.2 6.2 0 11.2 5 11.2 11.2 0 6.2-5.2 11.2-11.2 11.2zm-25.5-10c2.3 0 3.4-1.6 2.8-3.3-.6-3.1-2.3-5.7-4.9-7.3-3.8-2.4-8.7-2.3-12.4.3-3 2.2-4.7 5.6-4.7 9.2 0 .9.1 1.8.3 2.7 1.2 4.4 5 7.7 9.5 8.3 1.3.1 2.6 0 4-.3 1.1-.3 2.3-.7 3.3-1.4 1.1-.7 2-1.6 2.9-2.7v-.1c.6-.7.5-1.8-.2-2.3-.5-.5-1.5-.7-2.2.3-.1.2-.3.5-.5.7-.6.7-1.3 1.3-2.2 1.8-1.1.6-2.3.9-3.7.9-4.4 0-6.8-3.1-7.6-5.3-.037-.15-.075-.314-.112-.482l-.075-.336c-.038-.168-.075-.332-.113-.482v-.2h15.9zm-20.3 9.9c-.4 0-.8-.2-1.1-.5l-8.5-8.5-8.5 8.5c-.3.3-.7.4-1.1.4-.8 0-1.5-.7-1.5-1.5 0-.4.2-.8.5-1.1l8.5-8.5-8.5-8.5c-.3-.3-.5-.7-.5-1.1 0-.8.7-1.5 1.5-1.5.4 0 .8.2 1.1.4l8.5 8.5 8.5-8.5c.3-.3.7-.5 1.1-.5.8 0 1.5.7 1.5 1.5 0 .4-.2.8-.4 1.1l-8.5 8.5 8.5 8.5c.3.3.4.7.4 1.1 0 1-.7 1.7-1.5 1.7zm33.9-19c.9 0 1.5-.7 1.5-1.5s-.7-1.5-1.5-1.5h-.5c-1.4 0-2.8.4-3.9 1.3-.2-.7-.8-1.2-1.5-1.2-.8 0-1.5.7-1.5 1.5v18.8c0 .8.7 1.5 1.5 1.5s1.5-.7 1.5-1.5v-11.6c0-3.8.4-5.4 3.7-5.8h.7zM715 218.4c-1.9-1.8-3.2-3.6-3.9-5.5.5-2.1 1.5-4.1 3-6.1 1.4-1.9 3.2-3.6 5.2-5 .6 1.1 1.4 2.1 2.5 3.1 1 .9 2.2 1.8 3.4 2.5-.4.7-.7 1.4-1 2-2 4.1-3.6 8.4-4.6 12.4-1.7-1-3.4-2.2-4.6-3.4zm-116-13.3c-4.4 0-8 3.6-8 8s3.6 8 8 8 8-3.6 8-8c0-4.5-3.6-8-8-8zm230.5 5.5c0-4.4 2.2-7.7 7.1-7.7 4.9 0 7.1 3.3 7.1 7.7s-2.2 7.7-7.1 7.7c-4.8-.1-7.1-3.4-7.1-7.7zm46.4 7.4h-5v-14.8h5c4.6 0 7.5 2.2 7.5 7.4s-2.9 7.4-7.5 7.4zm-13.1-2.4h6.4v2.3h-9.7v-14.7h3.3v12.4zm-13.8 2.3h-3.2v-14.7h6.3c2.5 0 5.1.8 5.1 3.8 0 1.9-1.2 3.2-3.1 3.6 2.4.3 2.4 1.8 2.7 3.8.1.9.3 2.7.9 3.5h-3.5c-.3-1.3-.4-2.6-.5-4-.1-.8-.3-1.9-1.3-2H849v6zm42.4 0v-14.7h5.5c2.6-.2 5.3.9 5.3 3.8 0 1.6-1.1 2.7-2.6 3.2 1.9.4 3.3 1.7 3.3 3.8 0 2.9-3.7 4-6 3.8l-5.5.1zm26.7 0H915l-1.1-3.1h-5.8l-1.1 3.1h-3.1l5.3-14.7h3.8l5.1 14.7zm-147.4 0h-3.2v-12.3H763v-2.4h12v2.4h-4.3v12.3zm30.7 0h-10.2v-14.7h10v2.4h-6.8v3.5h6.3v2.5h-6.3v4h7v2.3zm-21.5 0h-3.2v-14.7h3.2v5.9h5.6v-5.9h3.2v14.7h-3.2v-6.3h-5.6v6.3zm142.8 0h-2.9v-14.7h4.6l5.6 11.6v-11.6h3v14.7h-4.5l-5.7-12.1h-.1v12.1zm16.1 0h-3.1v-14.7h3.1v6.4l5-6.4h3.6l-5.4 6.6 5.9 8.1h-4l-5.1-7.5v7.5zm-123.1 0H812l-3.5-14.7h3.2l2.3 11.1 2.9-11.1h3.6l2.5 11.1 2.5-11.1h3l-3.8 14.7h-3.5l-2.7-11.1-2.8 11.1zm17.2-7.3c0 2.5.6 5.4 3.7 5.4s3.7-2.9 3.7-5.4c0-2.5-.6-5.4-3.7-5.4s-3.7 2.9-3.7 5.4zM599 215.8c-1.5 0-2.8-1.2-2.8-2.8 0-1.6 1.2-2.8 2.8-2.8 1.5 0 2.8 1.2 2.8 2.8 0 1.6-1.3 2.8-2.8 2.8zm298-.2c1.5 0 2.5-.3 2.5-2s-1-2-2.5-2h-2.5v3.9h2.5v.1zm-23 0h1.6c3.8 0 4.3-2.6 4.3-4.9 0-2.3-.6-5-4.3-4.9H874v9.8zm39-3.2l-2-6.3-2.2 6.3h4.2zm-532.4-.1c-1.3-4.8-5.3-7.8-10.3-7.8-4.8 0-8.6 3-10.1 7.8h20.4zm185.1-7.2c3.8 0 7 2.5 7.9 6.2h-15.7v-.1c.9-3.5 4-6.1 7.8-6.1zm285.9.6H849v3.9h2.6c1.4 0 2.2-.7 2.2-2s-.8-1.9-2.2-1.9zm42.9 0v3.5h2.5v-.1c1.3 0 2.1-.6 2.1-1.7 0-1.2-.7-1.7-2.1-1.7h-2.5zm-157.1-8.1c2.6 1.9 4.9 4.3 6.8 7.2.4.5.7 1.1 1.1 1.6-1.8 1-4.1 1.6-6.5 1.8-.3-3.8-.8-7.4-1.4-10.6zm-4.5 10.2c-1.6-.4-3.2-.8-4.6-1.5 2.1-3.7 4.4-6.8 6.6-9.2.7 2.8 1.3 6.5 1.5 11.1-1.2 0-2.4-.1-3.5-.4zm-14.4-11.7c0 .1-.1.2-.1.4-.2 1.1-.2 2.1.1 3.2-2.4 1.7-4.5 3.6-6.2 5.8-.5.7-1 1.4-1.4 2 1.3-4.6 4-8.6 7.6-11.4zm4.9 7c.8 1 1.8 1.7 3 2.2 2-3.4 4.1-6.5 6.3-8.9-1.5.2-3 .6-4.5 1-2.5.7-4.8 1.7-6.9 3 .5.9 1.2 1.8 2.1 2.7zm-378.3-9.7c0 3.2-2.6 5.8-5.8 5.8-3.2 0-5.8-2.6-5.8-5.8 0-3.2 2.6-5.8 5.8-5.8 3.2 0 5.8 2.6 5.8 5.8zm-31.2 5.8c3.2 0 5.8-2.6 5.8-5.8 0-3.2-2.6-5.8-5.8-5.8-3.2 0-5.8 2.6-5.8 5.8-.1 3.2 2.5 5.8 5.8 5.8zm406.6-2.4c.3-1.2.9-2.2 2-3.1 2.6-.8 5.6-.6 8.9.6-1.3.2-2.7.5-4 .9-2.5.8-4.8 1.8-6.9 3v-1.4zm18.3-2.9c.8-.5 1.5-.8 2.1-1 1.1.4 2.2 1 3.3 1.8-1.7-.5-3.5-.6-5.4-.8zm-3.8-2.3c.9.1 1.9.3 2.9.5-.6.3-1.3.8-1.9 1.3-.3-.8-.6-1.3-1-1.8zm-2.5.8c.4.2.5.2.7.3-.5-.8-.9-1.3-1.3-1.3-.8 0-1.6 0-2.4.1 1 .2 2 .5 3 .9zM219.3 18.9c-22.1 0-40 17.8-40 39.8 0 3.3.4 6.6 1.2 9.7.1.3.2.7.3 1l10 35.7 2.5-.7-6.3-22.2c7.4 10 19.2 16.3 32.3 16.3 6.6 0 12.8-1.6 18.3-4.4l-32 34.9h3.5l39.8-43.5c5.4-5.9 9-13.4 10.1-21.7l15.3 65.1h2.6l-18.6-79.3c-3.1-13-12.5-23.6-24.9-28.2h59.2v-2.5h-73.3zm17.1 88.5c11.4 0 21.4-5 28.2-12.8l.7 3c-7.3 7.6-17.6 12.3-29 12.3-2.5 0-4.9-.3-7.3-.7l2.1-2.2c1.8.2 3.5.4 5.3.4zm-23-7.9c3.4 2.7 7.4 4.7 11.6 6.1l-1.9 2.1c-5.6-2-10.6-5.1-14.7-9.2 1.6.4 3.3.8 5 1zM889.36 50c2.557.006 4.92.4 7.284 1.084l.056.016-7.3 8.2c-8.3 0-15 6.6-15 14.8 0 7.8 6.7 14.5 15 14.5 7.9 0 14.7-6.7 14.7-14.5 0-3.4-1.2-6.6-3.2-9.1l6.4-6.8c3.8 4.3 6 9.8 6 16 0 12.9-10.9 23.8-24 23.8-13.4 0-24.3-10.9-24.3-23.8 0-13.5 10.8-24.2 24.3-24.2h.06zm98.14 1.6c15.6 0 16.4 9.9 16.4 11.8 0 2.6-.8 6.7-4.1 9.2 2.4 2.3 5.2 5.9 5.2 11.6 0 2.2-.7 5.9-4.9 9.6-2.9 2.6-8.1 2.9-10.7 2.9h-20.6V51.6h18.7zm-46 0c15.6 0 16.4 9.9 16.4 11.8 0 2.6-1.2 6.7-4.1 9.2 2.7 2.3 5.2 5.9 5.3 11.6 0 2.2-.8 5.9-4.9 9.6-3 2.6-8.2 2.9-10.8 2.9h-20.6V51.6h18.7zm-684.7 7.1c0 20.5-16.8 37.2-37.5 37.2-17.2 0-32.2-11.6-36.4-28.1-.7-3-1.1-6-1.1-9.1 0-20.5 16.8-37.2 37.5-37.2 20.8-.1 37.5 16.6 37.5 37.2zm13 33.4c3.3-4.9 5.4-10.5 6.3-16.6h.2l6.4-45.6-2.5-.4-4.6 32.5c-2.7-12.7-11.5-23.2-23.3-28.3 1.1 1.4 2 2.8 2.9 4.3 11.2 6.5 18.7 18.5 18.7 32.2 0 6.7-1.8 13-4.9 18.4l.8 3.5zm-70.9-21.9c0 3 .5 6.1 1.1 9 1.2 4.7 3.2 8.9 5.9 12.6-1.5-.6-3-1.3-4.4-2.1-1.7-3.1-3.1-6.4-4-9.9-.8-3.1-1.2-6.4-1.2-9.7v-.9l2.6.1v.9zM541 65.6V80c0 6.8-3.4 10.5-10.6 10.5-2.9 0-5.7-.6-8.1-1.9l-.6-.3 4.1-4.1c1.5.6 2.9.9 4.5.9 2.7 0 4-1.5 4.3-3.7-1.4 1.2-3 1.8-5 1.8-4.2 0-8.5-3-8.5-8.9v-.1c0-5.8 4.3-8.9 8.5-8.9 2.1 0 3.8.6 5.3 1.9l1.6-1.6h4.5zm240.398 14.918c.724.01 1.466.41 1.802 1.082.4.6.4 1.4 0 2-1 1.8-2.5 3.2-4.3 4.3-1.687.992-3.67 1.492-5.848 1.5H773c-4.2 0-8-2.2-10.1-5.8-.6-1-.2-2.2.8-2.8 1-.5 2.3-.2 2.8.7 1.3 2.3 3.9 3.8 6.5 3.8 1.3 0 2.6-.4 3.8-1 1.1-.7 2.1-1.6 2.8-2.8.2-.3.4-.6.8-.7.288-.192.628-.282.973-.282h.025zM749.9 88.8c-5.3 0-9.6-4.3-9.6-9.6V65.4h3.9v13.9c0 3.1 2.5 5.6 5.6 5.6 3.1 0 5.6-2.5 5.6-5.6V65.4h3.9v13.9c0 5.2-4.2 9.4-9.3 9.6l-.1-.1zm-129.1.1h-2.1c-5.3 0-9.7-4.3-9.7-9.7V58.8h4.1V67c1.6-1.1 3.5-1.7 5.5-1.7h2.1c5.3 0 9.7 4.3 9.7 9.7v4.3c.1 5.3-4.4 9.6-9.6 9.6zm55.9 0h-4.1V59h4.1v8.2c1.6-1.1 3.5-1.7 5.5-1.7 5.3 0 9.5 4.3 9.5 9.6l.1 13.8h-4.1V75c0-3-2.5-5.5-5.5-5.5s-5.5 2.5-5.5 5.5v13.9zm-5.5 0h-1c-5.3 0-9.6-4.3-9.6-9.6V59h4.1v6.4h4v4.1h-3.9v9.7c0 3 2.5 5.5 5.5 5.5h1l-.1 4.2zm273.6-11.5h-12.6v11.5H943c3 0 7 0 7.1-6.3 0-5.2-3.4-5.2-5.3-5.2zm46 0h-12.7v11.5h10.8c3 0 7.1 0 7.2-6.3 0-5.2-3.5-5.2-5.3-5.2zm-286 11.4h-2.1c-5.3 0-9.6-4.3-9.6-9.6v-4.3c0-5.3 4.3-9.6 9.6-9.6h2.1c5.3 0 9.6 4.3 9.6 9.6v4.3c0 3.1 2.5 5.6 5.6 5.6h.9v4h-.9c-5.3 0-9.6-4.3-9.6-9.6v-4.3c0-3.1-2.5-5.6-5.6-5.6h-2.1c-3.1 0-5.6 2.5-5.6 5.6v4.3c0 3.1 2.5 5.6 5.6 5.6h2.1c1.5 0 2.9-.6 4-1.6l.9-.9.3.7c.3.9.8 1.8 1.4 2.6l.3.3-.3.3c-1.7 1.7-4.1 2.6-6.6 2.6zM739 69.2h-1c-3.1 0-5.6 2.5-5.6 5.6v4.3c.1 5.4-4.2 9.7-9.5 9.7h-.9v-3.9h.9c3.1 0 5.6-2.5 5.6-5.6v-4.4c0-5.3 4.3-9.6 9.6-9.6h.9v3.9zm-95.2 19.6h-2.1c-5.3 0-9.6-4.3-9.6-9.6v-4.3c0-5.3 4.3-9.6 9.6-9.6h2.1c5.3 0 9.6 4.3 9.6 9.6v4.3c0 3.1 2.5 5.6 5.6 5.6h.9v4h-.9c-5.3 0-9.6-4.3-9.6-9.6v-4.3c0-3.1-2.5-5.6-5.6-5.6h-2.1c-3.1 0-5.6 2.5-5.6 5.6v4.3c0 3.1 2.5 5.6 5.6 5.6h2.1c1.5 0 2.9-.6 4-1.6l.9-.9.3.7c.3.9.8 1.8 1.4 2.6l.3.3-.3.3c-1.7 1.7-4.1 2.6-6.6 2.6zm141.9-.8c-.4 0-.7-.1-1-.3-1-.6-1.3-1.8-.8-2.8 2.1-3.6.8-8.2-2.8-10.3-1.1-.7-2.4-1-3.8-1-.4 0-.7-.1-1-.3-1-.6-1.3-1.8-.8-2.8.4-.6 1-1 1.8-1 2 0 4.1.5 5.8 1.6 2.7 1.6 4.6 4.1 5.4 7.1.8 3 .4 6.2-1.2 8.8-.3.6-.9 1-1.6 1zM449 74.8l5.2-5.2h8.8l.4 2.8c0 6.9-5.7 12.6-12.7 12.6-6.9 0-12.6-5.6-12.6-12.6s5.6-12.7 12.6-12.7c3 0 5.8 1.1 8 2.9l-4.8 4.8c-.9-.5-2-.9-3.2-.9-3.2 0-5.9 2.7-5.9 5.9s2.6 5.9 5.9 5.9c2.4 0 4.5-1.4 5.4-3.5H449zm-32-2c2 .7 5.8 2 5.8 5.7v.1c0 3.9-2.8 6.3-7.4 6.3-2.9 0-5.8-1-8.1-2.8l-.3-.2 3.5-3.5c1.7 1.1 3.5 1.8 5 1.8.9 0 1.8-.1 1.8-.9v-.1c0-.7-1.3-1.1-2.8-1.5-.2-.1-.5-.1-.7-.2-2.8-.9-5.7-2.2-5.7-5.9v-.1c0-3.7 2.9-6.2 7.1-6.2 2.3 0 5 .8 7 2.2l.3.2-3.6 3.6c-1.4-.8-2.8-1.2-3.8-1.2-.7 0-1.5.2-1.5.8v.1c0 .6 1.3 1.1 2.8 1.6l.6.2zm-39.7 12c-3.3 0-6-1.2-8-3.7l-.4-.4 4.2-4.2.2.3c1.3 1.5 2.5 2.1 3.8 2.1 1.7 0 2.5-1 2.5-3.2V60.1h6.5v15.8c.1 5.7-3.1 8.9-8.8 8.9zM432 65.6h4.1v5.5H432V78c0 .8.2 1.1 1 1.1s1.5-.2 2.2-.6l.9-.5v5.4l-.3.2c-1.3.8-2.6 1.2-4.3 1.2-3.9 0-5.8-1.9-5.8-5.9v-7.8h-2.1v-5.5h2.1v-5.4h6.3v5.4zm-26.3 18.9h-4.3l-1.7-1.7c-1.5 1.3-2.9 2-4.9 2-4.1 0-6.6-2.8-6.6-7.2v-12h6.3v10.5c0 2 .8 3 2.4 3 2.1 0 2.5-1.6 2.5-3V65.6h6.3v18.9zm215.1-15.1h-2.1c-3 0-5.5 2.5-5.5 5.5v4.3c0 3 2.5 5.5 5.5 5.5h2.1c3 0 5.5-2.5 5.5-5.5v-4.3c0-3-2.5-5.5-5.5-5.5zM485.3 84.6H480l-.2-.1-7.3-19h6.7l3.5 10.6 3.5-10.6h6.6l-7.5 19.1zm14.9-.1h-6.3V65.6h6.3v18.9zm8.2 0h-6.3V65.6h4.3l1.7 1.7c1.4-1.4 2.9-2 4.8-2 4.1 0 6.6 2.8 6.6 7.2v12h-6.2V74c0-2-.8-3-2.4-3-2.1 0-2.5 1.6-2.5 3v10.5zm-37.2 0h-6.3V65.6h6.3v18.9zm302.7-13.3c-.1 1.3.6 2.6 1.8 3.2.5.3 1.1.5 1.7.5 1.1 0 2.1.2 3.1.8 1.5.9 2.5 2.4 2.9 4-1.1-.8-2.5-.9-3.7-.2-.6.3-1 .7-1.3 1.2-.6.9-1.3 1.7-2.3 2.3-1.5.9-3.3 1.1-4.9.6 1.2-.6 2-1.7 2-3.1 0-.6-.2-1.2-.5-1.7-.5-.9-.8-2-.8-3.1 0-1.8.8-3.4 2-4.5zm-4.1 11.4c-.7 0-1.4-.4-1.8-1-1-1.8-1.6-3.8-1.6-5.8 0-6.4 5.2-11.7 11.7-11.7 1.1 0 2 .9 2 2.1 0 1.1-.9 2.1-2.1 2.1-4.2 0-7.6 3.4-7.6 7.6 0 1.3.4 2.6 1 3.8.2.3.3.7.3 1 .2 1.1-.7 1.9-1.9 1.9zM531.173 70.3c-2.286.013-3.973 1.61-3.973 3.8v.1c0 2.3 1.6 3.8 4 3.8 2.3 0 4-1.6 4-3.8v-.026c-.013-2.186-1.71-3.774-4-3.874h-.027zm412.027-11H932v10.3h10.4c4.1 0 6.4-1.5 6.4-5.2 0-4-2.6-5.1-5.6-5.1zm46 0H978v10.3h10.5c4.1 0 6.3-1.5 6.3-5.2 0-4-2.6-5.1-5.6-5.1zm-445.9 7.1h-.8v-.8h2.7v.8h-.9v2.2h-1v-2.2zm3.9.2l.6-1h1.2v3h-1v-1.5l-.5.7h-.5l-.5-.7v1.5h-1v-3h1l.7 1zm352-15.1h11.3l-14.3 15.6h-11.5l14.5-15.6zm-686.1-1.6c0 .14-.044.26-.09.377l-.02.046c-.046.118-.09.236-.09.377 0 .1.2.4.2.6-.7 0-1.5-.2-2.3-.2l-2.6-.2h-3.3v6h5.3c.7 0 1.5-.2 2.3-.2 0 .1-.2.4-.2.6 0 .1.2.4.2.6-.7 0-1.5-.2-2.3-.2h-5.3v7c1.5 0 4.3 0 5.9-.2.7 0 1.7 0 2.5.1 0 .14-.044.26-.09.377l-.02.046c-.046.118-.09.236-.09.377 0 .1.2.4.2.6h-10.7V49.9h10.5zM200 63.3c-.5.5-2.6 1.9-5.6 1.9-4 0-7-2.8-7-7.4 0-3.9 2.3-7.4 7.2-7.4 2.8 0 4.7 1.5 5.1 2h.2c.2-.6.3-1.2.5-1.9-1.7-.6-3.7-1.1-5.6-1.1-5.6 0-10 3.1-10 8.3 0 5.1 3.6 8.3 9.3 8.3 2 0 4.2-.3 5.8-1.2l.1-1.5zm22.4-13.7c4 0 5.9 1.3 5.9 3.6 0 2.8-2.8 4.2-5.4 4.5l5.4 6.2 1.2 1.5.5.6c-.5-.2-.9-.2-1.4-.2-.7 0-1.1 0-1.6.2-.263-.35-.506-.662-.747-.97l-.206-.26c-.24-.308-.485-.62-.747-.97l-3.1-3.6-2-2.2H218v7.9c-.3-.2-.8-.2-1.1-.2-.4 0-.7 0-1.2.2V49.6h6.7zm24.223.19c.118-.046.236-.09.377-.09v16.2h-.8c-.3-.4-.8-.9-1.4-1.5l-11.4-11.3h-.3v12.8c-.1-.2-.4-.2-.6-.2-.3 0-.6 0-.8.2V49.7h.9l12.6 12.2h.2V49.7c.14 0 .26.044.377.09l.046.02c.118.046.236.09.377.09.14 0 .26-.044.377-.09l.046-.02zM471.2 64h-6.3v-3.8h6.3V64zm29 0h-6.3v-3.8h6.3V64zm-282.3-6.9v-6.5c1.1 0 4-.2 5 0 2 .3 3 1.4 3 2.9 0 1.9-1.4 3.1-3.4 3.4-1.3.4-4.1.2-4.6.2zm-13.1-11.2c7.6-9.8 19.1-15.5 31.6-15.5 1.8 0 3.6.2 5.3.4 1.3 1 2.5 2 3.6 3.2-2.8-.7-5.8-1.1-8.8-1.1-14 0-24.4 7.8-28.5 13h-3.2z" fill="#435261"/></svg>